<svg xmlns="http://www.w3.org/2000/svg" version="1.1" xmlns:xlink="http://www.w3.org/1999/xlink" xmlns:svgjs="http://svgjs.dev/svgjs" width="1440" height="560" preserveAspectRatio="none" viewBox="0 0 1440 560"><g mask="url(&quot;#SvgjsMask1000&quot;)" fill="none"><rect width="1440" height="560" x="0" y="0" fill="#0e2a47"></rect><path d="M-48.54 358.21L-48.54 358.21" stroke="#132e65" stroke-width="1.5"></path><path d="M-48.54 358.21L56.21 365.37" stroke="#132e65" stroke-width="1.5"></path><path d="M-48.54 358.21L-44.04 502.73" stroke="#132e65" stroke-width="1.5"></path><path d="M-48.54 358.21L56.23 545.67" stroke="#132e65" stroke-width="1.5"></path><path d="M-44.04 502.73L-44.04 502.73" stroke="#132e65" stroke-width="1.5"></path><path d="M-44.04 502.73L56.23 545.67" stroke="#132e65" stroke-width="1.5"></path><path d="M-44.04 502.73L56.21 365.37" stroke="#132e65" stroke-width="1.5"></path><path d="M-44.04 502.73L64.8 648.42" stroke="#132e65" stroke-width="1.5"></path><path d="M-44.04 502.73L228.91 382.92" stroke="#132e65" stroke-width="1.5"></path><path d="M56.21 365.37L56.21 365.37" stroke="#132e65" stroke-width="1.5"></path><path d="M56.21 365.37L228.91 382.92" stroke="#132e65" stroke-width="1.5"></path><path d="M56.21 365.37L56.23 545.67" stroke="#132e65" stroke-width="1.5"></path><path d="M56.21 365.37L64.8 648.42" stroke="#132e65" stroke-width="1.5"></path><path d="M56.21 365.37L202.43 671.87" stroke="#132e65" stroke-width="1.5"></path><path d="M56.23 545.67L56.23 545.67" stroke="#132e65" stroke-width="1.5"></path><path d="M56.23 545.67L64.8 648.42" stroke="#132e65" stroke-width="1.5"></path><path d="M64.8 648.42L64.8 648.42" stroke="#132e65" stroke-width="1.5"></path><path d="M64.8 648.42L202.43 671.87" stroke="#132e65" stroke-width="1.5"></path><path d="M228.91 382.92L228.91 382.92" stroke="#132e65" stroke-width="1.5"></path><path d="M228.91 382.92L409.6 360.31" stroke="#132e65" stroke-width="1.5"></path><path d="M228.91 382.92L56.23 545.67" stroke="#132e65" stroke-width="1.5"></path><path d="M228.91 382.92L404.98 553.63" stroke="#132e65" stroke-width="1.5"></path><path d="M202.43 671.87L202.43 671.87" stroke="#132e65" stroke-width="1.5"></path><path d="M202.43 671.87L390.25 690.1" stroke="#132e65" stroke-width="1.5"></path><path d="M202.43 671.87L56.23 545.67" stroke="#132e65" stroke-width="1.5"></path><path d="M202.43 671.87L404.98 553.63" stroke="#132e65" stroke-width="1.5"></path><path d="M202.43 671.87L228.91 382.92" stroke="#132e65" stroke-width="1.5"></path><path d="M409.6 360.31L409.6 360.31" stroke="#132e65" stroke-width="1.5"></path><path d="M409.6 360.31L537.3 379.06" stroke="#132e65" stroke-width="1.5"></path><path d="M409.6 360.31L404.98 553.63" stroke="#132e65" stroke-width="1.5"></path><path d="M409.6 360.31L488.93 545.03" stroke="#132e65" stroke-width="1.5"></path><path d="M409.6 360.31L660.34 386.37" stroke="#132e65" stroke-width="1.5"></path><path d="M409.6 360.31L648.02 229.61" stroke="#132e65" stroke-width="1.5"></path><path d="M404.98 553.63L404.98 553.63" stroke="#132e65" stroke-width="1.5"></path><path d="M404.98 553.63L488.93 545.03" stroke="#132e65" stroke-width="1.5"></path><path d="M404.98 553.63L390.25 690.1" stroke="#132e65" stroke-width="1.5"></path><path d="M404.98 553.63L558.41 688.97" stroke="#132e65" stroke-width="1.5"></path><path d="M404.98 553.63L537.3 379.06" stroke="#132e65" stroke-width="1.5"></path><path d="M390.25 690.1L390.25 690.1" stroke="#132e65" stroke-width="1.5"></path><path d="M537.3 379.06L537.3 379.06" stroke="#132e65" stroke-width="1.5"></path><path d="M537.3 379.06L660.34 386.37" stroke="#132e65" stroke-width="1.5"></path><path d="M537.3 379.06L488.93 545.03" stroke="#132e65" stroke-width="1.5"></path><path d="M488.93 545.03L488.93 545.03" stroke="#132e65" stroke-width="1.5"></path><path d="M488.93 545.03L558.41 688.97" stroke="#132e65" stroke-width="1.5"></path><path d="M558.41 688.97L558.41 688.97" stroke="#132e65" stroke-width="1.5"></path><path d="M558.41 688.97L649.81 657.18" stroke="#132e65" stroke-width="1.5"></path><path d="M558.41 688.97L390.25 690.1" stroke="#132e65" stroke-width="1.5"></path><path d="M648.02 229.61L648.02 229.61" stroke="#132e65" stroke-width="1.5"></path><path d="M648.02 229.61L660.34 386.37" stroke="#132e65" stroke-width="1.5"></path><path d="M648.02 229.61L817.21 223.11" stroke="#132e65" stroke-width="1.5"></path><path d="M648.02 229.61L537.3 379.06" stroke="#132e65" stroke-width="1.5"></path><path d="M648.02 229.61L856.7 354.48" stroke="#132e65" stroke-width="1.5"></path><path d="M648.02 229.61L707.81 536.29" stroke="#132e65" stroke-width="1.5"></path><path d="M660.34 386.37L660.34 386.37" stroke="#132e65" stroke-width="1.5"></path><path d="M660.34 386.37L707.81 536.29" stroke="#132e65" stroke-width="1.5"></path><path d="M660.34 386.37L822.99 495.43" stroke="#132e65" stroke-width="1.5"></path><path d="M660.34 386.37L856.7 354.48" stroke="#132e65" stroke-width="1.5"></path><path d="M707.81 536.29L707.81 536.29" stroke="#132e65" stroke-width="1.5"></path><path d="M707.81 536.29L822.99 495.43" stroke="#132e65" stroke-width="1.5"></path><path d="M707.81 536.29L649.81 657.18" stroke="#132e65" stroke-width="1.5"></path><path d="M707.81 536.29L808.49 689.96" stroke="#132e65" stroke-width="1.5"></path><path d="M707.81 536.29L558.41 688.97" stroke="#132e65" stroke-width="1.5"></path><path d="M649.81 657.18L649.81 657.18" stroke="#132e65" stroke-width="1.5"></path><path d="M817.21 223.11L817.21 223.11" stroke="#132e65" stroke-width="1.5"></path><path d="M817.21 223.11L856.7 354.48" stroke="#132e65" stroke-width="1.5"></path><path d="M856.7 354.48L856.7 354.48" stroke="#132e65" stroke-width="1.5"></path><path d="M856.7 354.48L962.44 354.54" stroke="#132e65" stroke-width="1.5"></path><path d="M856.7 354.48L822.99 495.43" stroke="#132e65" stroke-width="1.5"></path><path d="M822.99 495.43L822.99 495.43" stroke="#132e65" stroke-width="1.5"></path><path d="M822.99 495.43L808.49 689.96" stroke="#132e65" stroke-width="1.5"></path><path d="M808.49 689.96L808.49 689.96" stroke="#132e65" stroke-width="1.5"></path><path d="M808.49 689.96L649.81 657.18" stroke="#132e65" stroke-width="1.5"></path><path d="M808.49 689.96L985.15 640.97" stroke="#132e65" stroke-width="1.5"></path><path d="M949.23 -105.31L949.23 -105.31" stroke="#132e65" stroke-width="1.5"></path><path d="M949.23 -105.31L1124.28 -68.82" stroke="#132e65" stroke-width="1.5"></path><path d="M949.23 -105.31L1116.67 106.93" stroke="#132e65" stroke-width="1.5"></path><path d="M949.23 -105.31L1290.81 -61.2" stroke="#132e65" stroke-width="1.5"></path><path d="M985.48 243.29L985.48 243.29" stroke="#132e65" stroke-width="1.5"></path><path d="M985.48 243.29L962.44 354.54" stroke="#132e65" stroke-width="1.5"></path><path d="M985.48 243.29L817.21 223.11" stroke="#132e65" stroke-width="1.5"></path><path d="M962.44 354.54L962.44 354.54" stroke="#132e65" stroke-width="1.5"></path><path d="M962.44 354.54L1134.6 351.43" stroke="#132e65" stroke-width="1.5"></path><path d="M985.15 640.97L985.15 640.97" stroke="#132e65" stroke-width="1.5"></path><path d="M985.15 640.97L1139.57 690.94" stroke="#132e65" stroke-width="1.5"></path><path d="M985.15 640.97L1134.54 501.48" stroke="#132e65" stroke-width="1.5"></path><path d="M985.15 640.97L822.99 495.43" stroke="#132e65" stroke-width="1.5"></path><path d="M985.15 640.97L1255.91 689.39" stroke="#132e65" stroke-width="1.5"></path><path d="M985.15 640.97L962.44 354.54" stroke="#132e65" stroke-width="1.5"></path><path d="M1124.28 -68.82L1124.28 -68.82" stroke="#132e65" stroke-width="1.5"></path><path d="M1124.28 -68.82L1290.81 -61.2" stroke="#132e65" stroke-width="1.5"></path><path d="M1124.28 -68.82L1116.67 106.93" stroke="#132e65" stroke-width="1.5"></path><path d="M1124.28 -68.82L1304.35 46.91" stroke="#132e65" stroke-width="1.5"></path><path d="M1124.28 -68.82L1391.99 -90.87" stroke="#132e65" stroke-width="1.5"></path><path d="M1116.67 106.93L1116.67 106.93" stroke="#132e65" stroke-width="1.5"></path><path d="M1116.67 106.93L985.48 243.29" stroke="#132e65" stroke-width="1.5"></path><path d="M1116.67 106.93L1304.35 46.91" stroke="#132e65" stroke-width="1.5"></path><path d="M1134.6 351.43L1134.6 351.43" stroke="#132e65" stroke-width="1.5"></path><path d="M1134.6 351.43L1243.33 339.2" stroke="#132e65" stroke-width="1.5"></path><path d="M1134.6 351.43L1134.54 501.48" stroke="#132e65" stroke-width="1.5"></path><path d="M1134.6 351.43L1274.41 259.7" stroke="#132e65" stroke-width="1.5"></path><path d="M1134.6 351.43L985.48 243.29" stroke="#132e65" stroke-width="1.5"></path><path d="M1134.54 501.48L1134.54 501.48" stroke="#132e65" stroke-width="1.5"></path><path d="M1134.54 501.48L1285.39 545.38" stroke="#132e65" stroke-width="1.5"></path><path d="M1134.54 501.48L1139.57 690.94" stroke="#132e65" stroke-width="1.5"></path><path d="M1134.54 501.48L1243.33 339.2" stroke="#132e65" stroke-width="1.5"></path><path d="M1139.57 690.94L1139.57 690.94" stroke="#132e65" stroke-width="1.5"></path><path d="M1139.57 690.94L1255.91 689.39" stroke="#132e65" stroke-width="1.5"></path><path d="M1290.81 -61.2L1290.81 -61.2" stroke="#132e65" stroke-width="1.5"></path><path d="M1290.81 -61.2L1391.99 -90.87" stroke="#132e65" stroke-width="1.5"></path><path d="M1290.81 -61.2L1304.35 46.91" stroke="#132e65" stroke-width="1.5"></path><path d="M1304.35 46.91L1304.35 46.91" stroke="#132e65" stroke-width="1.5"></path><path d="M1304.35 46.91L1391.99 -90.87" stroke="#132e65" stroke-width="1.5"></path><path d="M1274.41 259.7L1274.41 259.7" stroke="#132e65" stroke-width="1.5"></path><path d="M1274.41 259.7L1243.33 339.2" stroke="#132e65" stroke-width="1.5"></path><path d="M1274.41 259.7L1392.9 261.41" stroke="#132e65" stroke-width="1.5"></path><path d="M1274.41 259.7L1418.26 375.14" stroke="#132e65" stroke-width="1.5"></path><path d="M1243.33 339.2L1243.33 339.2" stroke="#132e65" stroke-width="1.5"></path><path d="M1243.33 339.2L1392.9 261.41" stroke="#132e65" stroke-width="1.5"></path><path d="M1243.33 339.2L1418.26 375.14" stroke="#132e65" stroke-width="1.5"></path><path d="M1243.33 339.2L1285.39 545.38" stroke="#132e65" stroke-width="1.5"></path><path d="M1285.39 545.38L1285.39 545.38" stroke="#132e65" stroke-width="1.5"></path><path d="M1285.39 545.38L1255.91 689.39" stroke="#132e65" stroke-width="1.5"></path><path d="M1285.39 545.38L1447.19 669.29" stroke="#132e65" stroke-width="1.5"></path><path d="M1285.39 545.38L1139.57 690.94" stroke="#132e65" stroke-width="1.5"></path><path d="M1255.91 689.39L1255.91 689.39" stroke="#132e65" stroke-width="1.5"></path><path d="M1391.99 -90.87L1391.99 -90.87" stroke="#132e65" stroke-width="1.5"></path><path d="M1391.99 -90.87L1575.44 -62.72" stroke="#132e65" stroke-width="1.5"></path><path d="M1391.99 -90.87L1458.71 109.27" stroke="#132e65" stroke-width="1.5"></path><path d="M1391.99 -90.87L1574.98 51.89" stroke="#132e65" stroke-width="1.5"></path><path d="M1458.71 109.27L1458.71 109.27" stroke="#132e65" stroke-width="1.5"></path><path d="M1458.71 109.27L1574.98 51.89" stroke="#132e65" stroke-width="1.5"></path><path d="M1458.71 109.27L1392.9 261.41" stroke="#132e65" stroke-width="1.5"></path><path d="M1458.71 109.27L1304.35 46.91" stroke="#132e65" stroke-width="1.5"></path><path d="M1392.9 261.41L1392.9 261.41" stroke="#132e65" stroke-width="1.5"></path><path d="M1392.9 261.41L1418.26 375.14" stroke="#132e65" stroke-width="1.5"></path><path d="M1418.26 375.14L1418.26 375.14" stroke="#132e65" stroke-width="1.5"></path><path d="M1418.26 375.14L1554.46 389.17" stroke="#132e65" stroke-width="1.5"></path><path d="M1418.26 375.14L1285.39 545.38" stroke="#132e65" stroke-width="1.5"></path><path d="M1447.19 669.29L1447.19 669.29" stroke="#132e65" stroke-width="1.5"></path><path d="M1447.19 669.29L1594.46 709.33" stroke="#132e65" stroke-width="1.5"></path><path d="M1575.44 -62.72L1575.44 -62.72" stroke="#132e65" stroke-width="1.5"></path><path d="M1575.44 -62.72L1574.98 51.89" stroke="#132e65" stroke-width="1.5"></path><path d="M1575.44 -62.72L1458.71 109.27" stroke="#132e65" stroke-width="1.5"></path><path d="M1575.44 -62.72L1594.84 210.13" stroke="#132e65" stroke-width="1.5"></path><path d="M1575.44 -62.72L1290.81 -61.2" stroke="#132e65" stroke-width="1.5"></path><path d="M1574.98 51.89L1574.98 51.89" stroke="#132e65" stroke-width="1.5"></path><path d="M1574.98 51.89L1594.84 210.13" stroke="#132e65" stroke-width="1.5"></path><path d="M1594.84 210.13L1594.84 210.13" stroke="#132e65" stroke-width="1.5"></path><path d="M1594.84 210.13L1458.71 109.27" stroke="#132e65" stroke-width="1.5"></path><path d="M1554.46 389.17L1554.46 389.17" stroke="#132e65" stroke-width="1.5"></path><path d="M1554.46 389.17L1609.63 549.81" stroke="#132e65" stroke-width="1.5"></path><path d="M1609.63 549.81L1609.63 549.81" stroke="#132e65" stroke-width="1.5"></path><path d="M1609.63 549.81L1594.46 709.33" stroke="#132e65" stroke-width="1.5"></path><path d="M1609.63 549.81L1447.19 669.29" stroke="#132e65" stroke-width="1.5"></path><path d="M1609.63 549.81L1418.26 375.14" stroke="#132e65" stroke-width="1.5"></path><path d="M1609.63 549.81L1285.39 545.38" stroke="#132e65" stroke-width="1.5"></path><path d="M1594.46 709.33L1594.46 709.33" stroke="#132e65" stroke-width="1.5"></path><path d="M1594.46 709.33L1554.46 389.17" stroke="#132e65" stroke-width="1.5"></path><path d="M1594.46 709.33L1255.91 689.39" stroke="#132e65" stroke-width="1.5"></path><circle r="5" cx="-48.54" cy="358.21" fill="#132e65"></circle><circle r="5" cx="-44.04" cy="502.73" fill="#132e65"></circle><circle r="5" cx="56.21" cy="365.37" fill="#132e65"></circle><circle r="5" cx="56.23" cy="545.67" fill="#132e65"></circle><circle r="5" cx="64.8" cy="648.42" fill="#132e65"></circle><circle r="5" cx="228.91" cy="382.92" fill="#132e65"></circle><circle r="5" cx="202.43" cy="671.87" fill="#132e65"></circle><circle r="5" cx="409.6" cy="360.31" fill="#132e65"></circle><circle r="5" cx="404.98" cy="553.63" fill="#132e65"></circle><circle r="5" cx="390.25" cy="690.1" fill="#132e65"></circle><circle r="5" cx="537.3" cy="379.06" fill="#132e65"></circle><circle r="5" cx="488.93" cy="545.03" fill="#132e65"></circle><circle r="5" cx="558.41" cy="688.97" fill="#132e65"></circle><circle r="5" cx="648.02" cy="229.61" fill="#132e65"></circle><circle r="5" cx="660.34" cy="386.37" fill="#132e65"></circle><circle r="5" cx="707.81" cy="536.29" fill="#132e65"></circle><circle r="5" cx="649.81" cy="657.18" fill="#132e65"></circle><circle r="5" cx="817.21" cy="223.11" fill="#132e65"></circle><circle r="5" cx="856.7" cy="354.48" fill="#132e65"></circle><circle r="5" cx="822.99" cy="495.43" fill="#132e65"></circle><circle r="5" cx="808.49" cy="689.96" fill="#132e65"></circle><circle r="5" cx="949.23" cy="-105.31" fill="#132e65"></circle><circle r="5" cx="985.48" cy="243.29" fill="#132e65"></circle><circle r="5" cx="962.44" cy="354.54" fill="#132e65"></circle><circle r="5" cx="985.15" cy="640.97" fill="#132e65"></circle><circle r="5" cx="1124.28" cy="-68.82" fill="#132e65"></circle><circle r="5" cx="1116.67" cy="106.93" fill="#132e65"></circle><circle r="5" cx="1134.6" cy="351.43" fill="#132e65"></circle><circle r="5" cx="1134.54" cy="501.48" fill="#132e65"></circle><circle r="5" cx="1139.57" cy="690.94" fill="#132e65"></circle><circle r="5" cx="1290.81" cy="-61.2" fill="#132e65"></circle><circle r="5" cx="1304.35" cy="46.91" fill="#132e65"></circle><circle r="5" cx="1274.41" cy="259.7" fill="#132e65"></circle><circle r="5" cx="1243.33" cy="339.2" fill="#132e65"></circle><circle r="5" cx="1285.39" cy="545.38" fill="#132e65"></circle><circle r="5" cx="1255.91" cy="689.39" fill="#132e65"></circle><circle r="5" cx="1391.99" cy="-90.87" fill="#132e65"></circle><circle r="5" cx="1458.71" cy="109.27" fill="#132e65"></circle><circle r="5" cx="1392.9" cy="261.41" fill="#132e65"></circle><circle r="5" cx="1418.26" cy="375.14" fill="#132e65"></circle><circle r="5" cx="1447.19" cy="669.29" fill="#132e65"></circle><circle r="5" cx="1575.44" cy="-62.72" fill="#132e65"></circle><circle r="5" cx="1574.98" cy="51.89" fill="#132e65"></circle><circle r="5" cx="1594.84" cy="210.13" fill="#132e65"></circle><circle r="5" cx="1554.46" cy="389.17" fill="#132e65"></circle><circle r="5" cx="1609.63" cy="549.81" fill="#132e65"></circle><circle r="5" cx="1594.46" cy="709.33" fill="#132e65"></circle><path d="M211.11 694.3L211.11 694.3" stroke="hsl(228.5, 77.2%, 51.5%)" stroke-width="1.5"></path><path d="M211.11 694.3L75.43 654.74" stroke="hsl(228.5, 77.2%, 51.5%)" stroke-width="1.5"></path><path d="M211.11 694.3L365.42 639.69" stroke="hsl(228.5, 77.2%, 51.5%)" stroke-width="1.5"></path><path d="M211.11 694.3L244.42 488.96" stroke="hsl(228.5, 77.2%, 51.5%)" stroke-width="1.5"></path><path d="M1129.78 689.55L1129.78 689.55" stroke="hsl(228.5, 77.2%, 51.5%)" stroke-width="1.5"></path><path d="M1129.78 689.55L992.35 686.06" stroke="hsl(228.5, 77.2%, 51.5%)" stroke-width="1.5"></path><path d="M1129.78 689.55L1120.51 534.2" stroke="hsl(228.5, 77.2%, 51.5%)" stroke-width="1.5"></path><path d="M1129.78 689.55L1298.14 666.62" stroke="hsl(228.5, 77.2%, 51.5%)" stroke-width="1.5"></path><path d="M1129.78 689.55L1245.86 490.95" stroke="hsl(228.5, 77.2%, 51.5%)" stroke-width="1.5"></path><path d="M1289.75 194.42L1289.75 194.42" stroke="hsl(228.5, 77.2%, 51.5%)" stroke-width="1.5"></path><path d="M1289.75 194.42L1269.66 102.49" stroke="hsl(228.5, 77.2%, 51.5%)" stroke-width="1.5"></path><path d="M1289.75 194.42L1404.17 224.34" stroke="hsl(228.5, 77.2%, 51.5%)" stroke-width="1.5"></path><path d="M1289.75 194.42L1290.34 349.94" stroke="hsl(228.5, 77.2%, 51.5%)" stroke-width="1.5"></path><path d="M1298.14 666.62L1298.14 666.62" stroke="hsl(228.5, 77.2%, 51.5%)" stroke-width="1.5"></path><path d="M1298.14 666.62L1423.72 645.09" stroke="hsl(228.5, 77.2%, 51.5%)" stroke-width="1.5"></path><path d="M1298.14 666.62L1245.86 490.95" stroke="hsl(228.5, 77.2%, 51.5%)" stroke-width="1.5"></path><path d="M1397.61 49.46L1397.61 49.46" stroke="hsl(228.5, 77.2%, 51.5%)" stroke-width="1.5"></path><path d="M1397.61 49.46L1269.66 102.49" stroke="hsl(228.5, 77.2%, 51.5%)" stroke-width="1.5"></path><path d="M1397.61 49.46L1388.01 -93.4" stroke="hsl(228.5, 77.2%, 51.5%)" stroke-width="1.5"></path><path d="M1397.61 49.46L1272.21 -48.08" stroke="hsl(228.5, 77.2%, 51.5%)" stroke-width="1.5"></path><path d="M1426.7 523.55L1426.7 523.55" stroke="hsl(228.5, 77.2%, 51.5%)" stroke-width="1.5"></path><path d="M1426.7 523.55L1423.72 645.09" stroke="hsl(228.5, 77.2%, 51.5%)" stroke-width="1.5"></path><path d="M1426.7 523.55L1574.48 518.6" stroke="hsl(228.5, 77.2%, 51.5%)" stroke-width="1.5"></path><path d="M1426.7 523.55L1245.86 490.95" stroke="hsl(228.5, 77.2%, 51.5%)" stroke-width="1.5"></path><path d="M1426.7 523.55L1298.14 666.62" stroke="hsl(228.5, 77.2%, 51.5%)" stroke-width="1.5"></path><path d="M1426.7 523.55L1571.25 672.62" stroke="hsl(228.5, 77.2%, 51.5%)" stroke-width="1.5"></path><path d="M-67.62 531.02L-67.62 531.02" stroke="hsl(228.5, 77.2%, 51.5%)" stroke-width="1.5"></path><path d="M-67.62 531.02L49.9 488.21" stroke="hsl(228.5, 77.2%, 51.5%)" stroke-width="1.5"></path><path d="M-67.62 531.02L-46.78 669.29" stroke="hsl(228.5, 77.2%, 51.5%)" stroke-width="1.5"></path><path d="M-67.62 531.02L75.43 654.74" stroke="hsl(228.5, 77.2%, 51.5%)" stroke-width="1.5"></path><path d="M-67.62 531.02L244.42 488.96" stroke="hsl(228.5, 77.2%, 51.5%)" stroke-width="1.5"></path><path d="M-67.62 531.02L211.11 694.3" stroke="hsl(228.5, 77.2%, 51.5%)" stroke-width="1.5"></path><path d="M-46.78 669.29L-46.78 669.29" stroke="hsl(228.5, 77.2%, 51.5%)" stroke-width="1.5"></path><path d="M-46.78 669.29L75.43 654.74" stroke="hsl(228.5, 77.2%, 51.5%)" stroke-width="1.5"></path><path d="M-46.78 669.29L49.9 488.21" stroke="hsl(228.5, 77.2%, 51.5%)" stroke-width="1.5"></path><path d="M49.9 488.21L49.9 488.21" stroke="hsl(228.5, 77.2%, 51.5%)" stroke-width="1.5"></path><path d="M49.9 488.21L75.43 654.74" stroke="hsl(228.5, 77.2%, 51.5%)" stroke-width="1.5"></path><path d="M49.9 488.21L244.42 488.96" stroke="hsl(228.5, 77.2%, 51.5%)" stroke-width="1.5"></path><path d="M49.9 488.21L211.11 694.3" stroke="hsl(228.5, 77.2%, 51.5%)" stroke-width="1.5"></path><path d="M75.43 654.74L75.43 654.74" stroke="hsl(228.5, 77.2%, 51.5%)" stroke-width="1.5"></path><path d="M75.43 654.74L244.42 488.96" stroke="hsl(228.5, 77.2%, 51.5%)" stroke-width="1.5"></path><path d="M244.42 488.96L244.42 488.96" stroke="hsl(228.5, 77.2%, 51.5%)" stroke-width="1.5"></path><path d="M244.42 488.96L354.05 502.72" stroke="hsl(228.5, 77.2%, 51.5%)" stroke-width="1.5"></path><path d="M244.42 488.96L365.42 639.69" stroke="hsl(228.5, 77.2%, 51.5%)" stroke-width="1.5"></path><path d="M354.05 502.72L354.05 502.72" stroke="hsl(228.5, 77.2%, 51.5%)" stroke-width="1.5"></path><path d="M354.05 502.72L365.42 639.69" stroke="hsl(228.5, 77.2%, 51.5%)" stroke-width="1.5"></path><path d="M354.05 502.72L211.11 694.3" stroke="hsl(228.5, 77.2%, 51.5%)" stroke-width="1.5"></path><path d="M354.05 502.72L531.53 669.29" stroke="hsl(228.5, 77.2%, 51.5%)" stroke-width="1.5"></path><path d="M354.05 502.72L49.9 488.21" stroke="hsl(228.5, 77.2%, 51.5%)" stroke-width="1.5"></path><path d="M354.05 502.72L656.59 546.61" stroke="hsl(228.5, 77.2%, 51.5%)" stroke-width="1.5"></path><path d="M365.42 639.69L365.42 639.69" stroke="hsl(228.5, 77.2%, 51.5%)" stroke-width="1.5"></path><path d="M365.42 639.69L531.53 669.29" stroke="hsl(228.5, 77.2%, 51.5%)" stroke-width="1.5"></path><path d="M531.53 669.29L531.53 669.29" stroke="hsl(228.5, 77.2%, 51.5%)" stroke-width="1.5"></path><path d="M531.53 669.29L690.43 691.15" stroke="hsl(228.5, 77.2%, 51.5%)" stroke-width="1.5"></path><path d="M531.53 669.29L656.59 546.61" stroke="hsl(228.5, 77.2%, 51.5%)" stroke-width="1.5"></path><path d="M531.53 669.29L792.75 671.92" stroke="hsl(228.5, 77.2%, 51.5%)" stroke-width="1.5"></path><path d="M704.37 409.68L704.37 409.68" stroke="hsl(228.5, 77.2%, 51.5%)" stroke-width="1.5"></path><path d="M704.37 409.68L834.95 395.19" stroke="hsl(228.5, 77.2%, 51.5%)" stroke-width="1.5"></path><path d="M704.37 409.68L656.59 546.61" stroke="hsl(228.5, 77.2%, 51.5%)" stroke-width="1.5"></path><path d="M704.37 409.68L862.31 555.56" stroke="hsl(228.5, 77.2%, 51.5%)" stroke-width="1.5"></path><path d="M656.59 546.61L656.59 546.61" stroke="hsl(228.5, 77.2%, 51.5%)" stroke-width="1.5"></path><path d="M656.59 546.61L690.43 691.15" stroke="hsl(228.5, 77.2%, 51.5%)" stroke-width="1.5"></path><path d="M690.43 691.15L690.43 691.15" stroke="hsl(228.5, 77.2%, 51.5%)" stroke-width="1.5"></path><path d="M690.43 691.15L792.75 671.92" stroke="hsl(228.5, 77.2%, 51.5%)" stroke-width="1.5"></path><path d="M690.43 691.15L862.31 555.56" stroke="hsl(228.5, 77.2%, 51.5%)" stroke-width="1.5"></path><path d="M834.95 395.19L834.95 395.19" stroke="hsl(228.5, 77.2%, 51.5%)" stroke-width="1.5"></path><path d="M834.95 395.19L974.81 358.22" stroke="hsl(228.5, 77.2%, 51.5%)" stroke-width="1.5"></path><path d="M862.31 555.56L862.31 555.56" stroke="hsl(228.5, 77.2%, 51.5%)" stroke-width="1.5"></path><path d="M862.31 555.56L792.75 671.92" stroke="hsl(228.5, 77.2%, 51.5%)" stroke-width="1.5"></path><path d="M862.31 555.56L834.95 395.19" stroke="hsl(228.5, 77.2%, 51.5%)" stroke-width="1.5"></path><path d="M862.31 555.56L992.35 686.06" stroke="hsl(228.5, 77.2%, 51.5%)" stroke-width="1.5"></path><path d="M792.75 671.92L792.75 671.92" stroke="hsl(228.5, 77.2%, 51.5%)" stroke-width="1.5"></path><path d="M792.75 671.92L656.59 546.61" stroke="hsl(228.5, 77.2%, 51.5%)" stroke-width="1.5"></path><path d="M792.75 671.92L992.35 686.06" stroke="hsl(228.5, 77.2%, 51.5%)" stroke-width="1.5"></path><path d="M792.75 671.92L704.37 409.68" stroke="hsl(228.5, 77.2%, 51.5%)" stroke-width="1.5"></path><path d="M965.65 253.7L965.65 253.7" stroke="hsl(228.5, 77.2%, 51.5%)" stroke-width="1.5"></path><path d="M965.65 253.7L974.81 358.22" stroke="hsl(228.5, 77.2%, 51.5%)" stroke-width="1.5"></path><path d="M965.65 253.7L834.95 395.19" stroke="hsl(228.5, 77.2%, 51.5%)" stroke-width="1.5"></path><path d="M965.65 253.7L1131.11 396.86" stroke="hsl(228.5, 77.2%, 51.5%)" stroke-width="1.5"></path><path d="M965.65 253.7L1127.76 97.87" stroke="hsl(228.5, 77.2%, 51.5%)" stroke-width="1.5"></path><path d="M974.81 358.22L974.81 358.22" stroke="hsl(228.5, 77.2%, 51.5%)" stroke-width="1.5"></path><path d="M992.35 686.06L992.35 686.06" stroke="hsl(228.5, 77.2%, 51.5%)" stroke-width="1.5"></path><path d="M992.35 686.06L1120.51 534.2" stroke="hsl(228.5, 77.2%, 51.5%)" stroke-width="1.5"></path><path d="M1127.76 97.87L1127.76 97.87" stroke="hsl(228.5, 77.2%, 51.5%)" stroke-width="1.5"></path><path d="M1127.76 97.87L1269.66 102.49" stroke="hsl(228.5, 77.2%, 51.5%)" stroke-width="1.5"></path><path d="M1127.76 97.87L1289.75 194.42" stroke="hsl(228.5, 77.2%, 51.5%)" stroke-width="1.5"></path><path d="M1131.11 396.86L1131.11 396.86" stroke="hsl(228.5, 77.2%, 51.5%)" stroke-width="1.5"></path><path d="M1131.11 396.86L1120.51 534.2" stroke="hsl(228.5, 77.2%, 51.5%)" stroke-width="1.5"></path><path d="M1131.11 396.86L1245.86 490.95" stroke="hsl(228.5, 77.2%, 51.5%)" stroke-width="1.5"></path><path d="M1120.51 534.2L1120.51 534.2" stroke="hsl(228.5, 77.2%, 51.5%)" stroke-width="1.5"></path><path d="M1120.51 534.2L1245.86 490.95" stroke="hsl(228.5, 77.2%, 51.5%)" stroke-width="1.5"></path><path d="M1120.51 534.2L1298.14 666.62" stroke="hsl(228.5, 77.2%, 51.5%)" stroke-width="1.5"></path><path d="M1272.21 -48.08L1272.21 -48.08" stroke="hsl(228.5, 77.2%, 51.5%)" stroke-width="1.5"></path><path d="M1272.21 -48.08L1388.01 -93.4" stroke="hsl(228.5, 77.2%, 51.5%)" stroke-width="1.5"></path><path d="M1272.21 -48.08L1269.66 102.49" stroke="hsl(228.5, 77.2%, 51.5%)" stroke-width="1.5"></path><path d="M1272.21 -48.08L1127.76 97.87" stroke="hsl(228.5, 77.2%, 51.5%)" stroke-width="1.5"></path><path d="M1272.21 -48.08L1289.75 194.42" stroke="hsl(228.5, 77.2%, 51.5%)" stroke-width="1.5"></path><path d="M1269.66 102.49L1269.66 102.49" stroke="hsl(228.5, 77.2%, 51.5%)" stroke-width="1.5"></path><path d="M1290.34 349.94L1290.34 349.94" stroke="hsl(228.5, 77.2%, 51.5%)" stroke-width="1.5"></path><path d="M1290.34 349.94L1245.86 490.95" stroke="hsl(228.5, 77.2%, 51.5%)" stroke-width="1.5"></path><path d="M1290.34 349.94L1131.11 396.86" stroke="hsl(228.5, 77.2%, 51.5%)" stroke-width="1.5"></path><path d="M1290.34 349.94L1404.17 224.34" stroke="hsl(228.5, 77.2%, 51.5%)" stroke-width="1.5"></path><path d="M1290.34 349.94L1426.7 523.55" stroke="hsl(228.5, 77.2%, 51.5%)" stroke-width="1.5"></path><path d="M1290.34 349.94L1269.66 102.49" stroke="hsl(228.5, 77.2%, 51.5%)" stroke-width="1.5"></path><path d="M1245.86 490.95L1245.86 490.95" stroke="hsl(228.5, 77.2%, 51.5%)" stroke-width="1.5"></path><path d="M1388.01 -93.4L1388.01 -93.4" stroke="hsl(228.5, 77.2%, 51.5%)" stroke-width="1.5"></path><path d="M1388.01 -93.4L1602.06 -91.28" stroke="hsl(228.5, 77.2%, 51.5%)" stroke-width="1.5"></path><path d="M1388.01 -93.4L1269.66 102.49" stroke="hsl(228.5, 77.2%, 51.5%)" stroke-width="1.5"></path><path d="M1388.01 -93.4L1289.75 194.42" stroke="hsl(228.5, 77.2%, 51.5%)" stroke-width="1.5"></path><path d="M1404.17 224.34L1404.17 224.34" stroke="hsl(228.5, 77.2%, 51.5%)" stroke-width="1.5"></path><path d="M1404.17 224.34L1570.3 251.48" stroke="hsl(228.5, 77.2%, 51.5%)" stroke-width="1.5"></path><path d="M1404.17 224.34L1397.61 49.46" stroke="hsl(228.5, 77.2%, 51.5%)" stroke-width="1.5"></path><path d="M1404.17 224.34L1269.66 102.49" stroke="hsl(228.5, 77.2%, 51.5%)" stroke-width="1.5"></path><path d="M1404.17 224.34L1426.7 523.55" stroke="hsl(228.5, 77.2%, 51.5%)" stroke-width="1.5"></path><path d="M1423.72 645.09L1423.72 645.09" stroke="hsl(228.5, 77.2%, 51.5%)" stroke-width="1.5"></path><path d="M1423.72 645.09L1571.25 672.62" stroke="hsl(228.5, 77.2%, 51.5%)" stroke-width="1.5"></path><path d="M1423.72 645.09L1574.48 518.6" stroke="hsl(228.5, 77.2%, 51.5%)" stroke-width="1.5"></path><path d="M1423.72 645.09L1245.86 490.95" stroke="hsl(228.5, 77.2%, 51.5%)" stroke-width="1.5"></path><path d="M1602.06 -91.28L1602.06 -91.28" stroke="hsl(228.5, 77.2%, 51.5%)" stroke-width="1.5"></path><path d="M1602.06 -91.28L1397.61 49.46" stroke="hsl(228.5, 77.2%, 51.5%)" stroke-width="1.5"></path><path d="M1602.06 -91.28L1272.21 -48.08" stroke="hsl(228.5, 77.2%, 51.5%)" stroke-width="1.5"></path><path d="M1570.3 251.48L1570.3 251.48" stroke="hsl(228.5, 77.2%, 51.5%)" stroke-width="1.5"></path><path d="M1570.3 251.48L1397.61 49.46" stroke="hsl(228.5, 77.2%, 51.5%)" stroke-width="1.5"></path><path d="M1570.3 251.48L1574.48 518.6" stroke="hsl(228.5, 77.2%, 51.5%)" stroke-width="1.5"></path><path d="M1570.3 251.48L1289.75 194.42" stroke="hsl(228.5, 77.2%, 51.5%)" stroke-width="1.5"></path><path d="M1570.3 251.48L1290.34 349.94" stroke="hsl(228.5, 77.2%, 51.5%)" stroke-width="1.5"></path><path d="M1574.48 518.6L1574.48 518.6" stroke="hsl(228.5, 77.2%, 51.5%)" stroke-width="1.5"></path><path d="M1574.48 518.6L1571.25 672.62" stroke="hsl(228.5, 77.2%, 51.5%)" stroke-width="1.5"></path><path d="M1571.25 672.62L1571.25 672.62" stroke="hsl(228.5, 77.2%, 51.5%)" stroke-width="1.5"></path><path d="M1571.25 672.62L1298.14 666.62" stroke="hsl(228.5, 77.2%, 51.5%)" stroke-width="1.5"></path><path d="M1571.25 672.62L1245.86 490.95" stroke="hsl(228.5, 77.2%, 51.5%)" stroke-width="1.5"></path><circle r="25" cx="211.11" cy="694.3" fill="url(&quot;#SvgjsRadialGradient1001&quot;)"></circle><circle r="25" cx="1129.78" cy="689.55" fill="url(&quot;#SvgjsRadialGradient1001&quot;)"></circle><circle r="25" cx="1289.75" cy="194.42" fill="url(&quot;#SvgjsRadialGradient1001&quot;)"></circle><circle r="25" cx="1298.14" cy="666.62" fill="url(&quot;#SvgjsRadialGradient1001&quot;)"></circle><circle r="25" cx="1397.61" cy="49.46" fill="url(&quot;#SvgjsRadialGradient1001&quot;)"></circle><circle r="25" cx="1426.7" cy="523.55" fill="url(&quot;#SvgjsRadialGradient1001&quot;)"></circle><circle r="5" cx="-67.62" cy="531.02" fill="#8b9ad9"></circle><circle r="5" cx="-46.78" cy="669.29" fill="#8b9ad9"></circle><circle r="5" cx="49.9" cy="488.21" fill="#8b9ad9"></circle><circle r="5" cx="75.43" cy="654.74" fill="#8b9ad9"></circle><circle r="5" cx="244.42" cy="488.96" fill="#8b9ad9"></circle><circle r="5" cx="354.05" cy="502.72" fill="#8b9ad9"></circle><circle r="5" cx="365.42" cy="639.69" fill="#8b9ad9"></circle><circle r="5" cx="531.53" cy="669.29" fill="#8b9ad9"></circle><circle r="5" cx="704.37" cy="409.68" fill="#8b9ad9"></circle><circle r="5" cx="656.59" cy="546.61" fill="#8b9ad9"></circle><circle r="5" cx="690.43" cy="691.15" fill="#8b9ad9"></circle><circle r="5" cx="834.95" cy="395.19" fill="#8b9ad9"></circle><circle r="5" cx="862.31" cy="555.56" fill="#8b9ad9"></circle><circle r="5" cx="792.75" cy="671.92" fill="#8b9ad9"></circle><circle r="5" cx="965.65" cy="253.7" fill="#8b9ad9"></circle><circle r="5" cx="974.81" cy="358.22" fill="#8b9ad9"></circle><circle r="5" cx="992.35" cy="686.06" fill="#8b9ad9"></circle><circle r="5" cx="1127.76" cy="97.87" fill="#8b9ad9"></circle><circle r="5" cx="1131.11" cy="396.86" fill="#8b9ad9"></circle><circle r="5" cx="1120.51" cy="534.2" fill="#8b9ad9"></circle><circle r="5" cx="1272.21" cy="-48.08" fill="#8b9ad9"></circle><circle r="5" cx="1269.66" cy="102.49" fill="#8b9ad9"></circle><circle r="5" cx="1290.34" cy="349.94" fill="#8b9ad9"></circle><circle r="5" cx="1245.86" cy="490.95" fill="#8b9ad9"></circle><circle r="5" cx="1388.01" cy="-93.4" fill="#8b9ad9"></circle><circle r="5" cx="1404.17" cy="224.34" fill="#8b9ad9"></circle><circle r="5" cx="1423.72" cy="645.09" fill="#8b9ad9"></circle><circle r="5" cx="1602.06" cy="-91.28" fill="#8b9ad9"></circle><circle r="5" cx="1570.3" cy="251.48" fill="#8b9ad9"></circle><circle r="5" cx="1574.48" cy="518.6" fill="#8b9ad9"></circle><circle r="5" cx="1571.25" cy="672.62" fill="#8b9ad9"></circle></g><defs><mask id="SvgjsMask1000"><rect width="1440" height="560" fill="#ffffff"></rect></mask><radialGradient id="SvgjsRadialGradient1001"><stop stop-color="#ffffff" offset="0.1"></stop><stop stop-color="#1735b3" offset="0.2"></stop><stop stop-color="rgba(23, 53, 179, 0)" offset="1"></stop></radialGradient></defs></svg>