<svg width="34" height="34" viewBox="0 0 34 34" fill="none" xmlns="http://www.w3.org/2000/svg">
<g clip-path="url(#clip0)">
<path d="M29.953 10.8256C29.9528 10.3225 29.8401 9.87799 29.6121 9.49647C29.3882 9.1213 29.0529 8.80685 28.6031 8.55823C24.8904 6.51478 21.1741 4.47759 17.4625 2.43207C16.4619 1.88066 15.4918 1.90076 14.4986 2.46008C13.0208 3.29198 5.62206 7.33814 3.41734 8.55708C2.50937 9.0588 2.06755 9.82664 2.06734 10.8247C2.06592 14.9342 2.06734 19.0435 2.06592 23.1531C2.06614 23.6452 2.17405 24.0811 2.39196 24.4569C2.61598 24.8434 2.95599 25.1665 3.41614 25.4207C5.62097 26.6397 13.0207 30.6855 14.4981 31.5176C15.4918 32.0772 16.4619 32.0972 17.4629 31.5456C21.1745 29.5 24.891 27.4629 28.6043 25.4195C29.0645 25.1653 29.4045 24.842 29.6285 24.4558C29.8461 24.08 29.9542 23.6441 29.9544 23.152C29.9544 23.152 29.9544 14.9352 29.953 10.8256Z" fill="#5C8DBC"/>
<path d="M16.0525 16.9473L2.3916 24.4553C2.61562 24.8418 2.95563 25.1649 3.41578 25.4191C5.62061 26.6381 13.0203 30.6839 14.4978 31.516C15.4914 32.0756 16.4616 32.0956 17.4625 31.544C21.1741 29.4984 24.8907 27.4613 28.604 25.4179C29.0641 25.1637 29.4041 24.8404 29.6281 24.4542L16.0525 16.9473Z" fill="#1A4674"/>
<path d="M12.0063 19.1712C12.8013 20.4959 14.2956 21.3893 16.0099 21.3893C17.7347 21.3893 19.2376 20.4845 20.0285 19.1457L16.0525 16.9473L12.0063 19.1712Z" fill="#1A4674"/>
<path d="M29.9529 10.8241C29.9527 10.3211 29.84 9.87652 29.612 9.495L16.0527 16.9474L29.6284 24.4543C29.846 24.0785 29.9541 23.6426 29.9543 23.1505C29.9543 23.1505 29.9543 14.9337 29.9529 10.8241Z" fill="#1B598E"/>
<path d="M29.2057 17.4839H28.1449V18.4967H27.0838V17.4839H26.0231V16.4714H27.0838V15.4588H28.1449V16.4714H29.2057V17.4839ZM25.3348 17.4839H24.274V18.4967H23.2132V17.4839H22.1523V16.4714H23.2132V15.4588H24.274V16.4714H25.3348V17.4839Z" fill="white"/>
<path d="M20.0295 19.1457C19.2386 20.4846 17.7357 21.3894 16.0109 21.3894C14.2966 21.3894 12.8023 20.4959 12.0073 19.1713C11.608 18.5066 11.3983 17.7535 11.3991 16.9873C11.3991 14.5562 13.464 12.5854 16.0109 12.5854C17.7141 12.5854 19.2006 13.4677 19.9994 14.7788L24.0304 12.5632C22.4282 9.92323 19.4369 8.14716 16.0109 8.14716C10.8959 8.14716 6.74951 12.1051 6.74951 16.9873C6.74951 18.589 7.19591 20.0911 7.9761 21.3867C9.57424 24.0406 12.574 25.8276 16.0109 25.8276C19.4541 25.8276 22.4585 24.0334 24.0544 21.3717L20.0295 19.1457Z" fill="white"/>
</g>
<defs>
<clipPath id="clip0">
<rect width="27.9341" height="30" fill="white" transform="translate(2.06592 2)"/>
</clipPath>
</defs>
</svg>
