<svg id="Layer_1" data-name="Layer 1" xmlns="http://www.w3.org/2000/svg" viewBox="0 0 176 152"><defs><style>.cls-1{fill:#1d5f6b;}.cls-2{fill:#f87d00;}</style></defs><path class="cls-1" d="M32.09,55.27a8.4,8.4,0,0,1,8-3l23,61s-6,0-9,4Z"/><path class="cls-1" d="M140,52.48a8.4,8.4,0,0,1,8.11,2.69L127.7,117.08s-4.61-3.6-9.61-3.6Z"/><path class="cls-1" d="M65.09,118.48s-7,1-9,5l4,8s6,10,13,0c0,0,14-25,17-33,0,0,13-27,13-34,0,0,5-25-12-25s-15,16-15,16,0,12,8,29c0,0,18,40,19,41,0,0,11,18,18,5l4-8s-4-4-8-4c0,0-3,4-7,0l-15-29s-10-15-10-28,3-14,5-14,8,2,6,14-13,33-15,37S70.09,127.48,65.09,118.48Z"/><path class="cls-2" d="M54.09,117.27a10.9,10.9,0,0,1,9-4l2,5.21s-7,1-9,5Z"/><path class="cls-2" d="M32.09,55.27s3-4.21,8-3l-2-4.79s-6,0-8,4Z"/><path class="cls-2" d="M140,52.48s6.13-.62,8.11,2.69l2-4.69a12.28,12.28,0,0,0-9-2Z"/><path class="cls-2" d="M117.09,118.48l1-5s6.23.21,9.61,3.6l-2.61,5.4S121.09,118.48,117.09,118.48Z"/><path class="cls-2" d="M140.05,51.9h0Z"/><path class="cls-2" d="M140.93,39.89l12.13-12-4,11.38a1.39,1.39,0,0,0-.65,2.68,1.36,1.36,0,0,0,1.72-.87,1.37,1.37,0,0,0-.56-1.63l3.94-11.25L156,44.71s-6.87,5.07-7.53,10.12a26.87,26.87,0,0,0-4.22-2.06,19.32,19.32,0,0,0-4.13-.87C140.42,51.66,143.09,43.48,140.93,39.89Z"/><path class="cls-2" d="M40,51.9h0Z"/><path class="cls-2" d="M39.07,39.89l-12.13-12,4,11.38a1.39,1.39,0,0,1,.65,2.68,1.36,1.36,0,0,1-1.72-.87,1.37,1.37,0,0,1,.56-1.63L26.48,28.17,24.05,44.71s6.87,5.07,7.53,10.12a26.87,26.87,0,0,1,4.22-2.06,19.32,19.32,0,0,1,4.13-.87C39.58,51.66,36.91,43.48,39.07,39.89Z"/></svg>