<svg id="Layer_1" data-name="Layer 1" xmlns="http://www.w3.org/2000/svg" viewBox="0 0 710.83 732.96"><defs><style>.cls-1{fill:#86baed;}.cls-2{fill:#ee4962;}.cls-10,.cls-3{fill:#fff;}.cls-3{stroke:#a12235;stroke-miterlimit:10;}.cls-4{fill:#a12235;}.cls-5{fill:#ecb0aa;}.cls-6{fill:#272326;}.cls-7{fill:#99172f;}.cls-8{fill:#efafa8;}.cls-9{fill:#eeb0ac;}.cls-11{fill:#f0b102;}</style></defs><path class="cls-1" d="M1238.9,316s111.82-140.79-3.19-135.68l-108,63.26L882.35,553.52l-83.71,55.6c-138,127.79,17.89,136.74,17.89,136.74l.64-15.34c-125.88-13.42-8.3-109.26-8.3-109.26l82.42-55,242.82-311.18,99.68-60.7s81.79-19.17,5.11,99.37Z" transform="translate(-741.62 -140.36)"/><polygon class="cls-2" points="74.92 605.5 178.43 544.38 425.72 220.97 501.12 178.31 501.12 83.45 407.19 136.29 156.63 469.86 74.92 516.37 74.92 605.5"/><polygon class="cls-3" points="496.41 85.37 658.31 178.25 598.48 213.13 436.58 119.63 496.41 85.37"/><polygon class="cls-3" points="436.74 159.19 436.58 119.63 597.92 213.13 597.92 252.61 436.74 159.19"/><polygon class="cls-3" points="657.99 178.34 657.99 218.16 597.84 252.72 597.92 212.85 657.99 178.34"/><polygon class="cls-3" points="436.35 159.49 598.25 252.37 538.42 287.26 376.52 193.75 436.35 159.49"/><polygon class="cls-3" points="376.68 233.31 376.52 193.75 537.86 287.26 537.86 326.73 376.68 233.31"/><polygon class="cls-3" points="597.92 252.46 597.92 292.29 537.78 326.84 537.86 286.97 597.92 252.46"/><polygon class="cls-3" points="376.28 233.61 538.18 326.5 478.35 361.38 316.45 267.88 376.28 233.61"/><polygon class="cls-3" points="316.61 307.43 316.45 267.88 477.8 361.38 477.8 400.85 316.61 307.43"/><polygon class="cls-3" points="537.86 326.59 537.86 366.41 477.71 400.96 477.8 361.09 537.86 326.59"/><polygon class="cls-3" points="316.22 307.74 478.12 400.62 418.29 435.5 256.39 342 316.22 307.74"/><polygon class="cls-3" points="256.55 381.56 256.39 342 417.73 435.5 417.73 474.98 256.55 381.56"/><polygon class="cls-3" points="477.8 400.71 477.8 440.53 417.65 475.08 417.73 435.21 477.8 400.71"/><polygon class="cls-3" points="256.15 381.86 418.05 474.74 358.22 509.62 196.32 416.12 256.15 381.86"/><polygon class="cls-3" points="196.48 455.68 196.32 416.12 357.67 509.62 357.67 549.1 196.48 455.68"/><polygon class="cls-3" points="417.73 474.83 417.73 514.65 357.58 549.21 357.67 509.34 417.73 474.83"/><polygon class="cls-3" points="196.09 455.98 357.99 548.86 298.16 583.75 136.26 490.24 196.09 455.98"/><polygon class="cls-3" points="136.42 529.8 136.26 490.24 297.6 583.75 297.6 623.22 136.42 529.8"/><polygon class="cls-3" points="357.67 548.95 357.67 588.77 297.52 623.33 297.6 583.46 357.67 548.95"/><polygon class="cls-3" points="136.02 530.1 297.92 622.99 238.09 657.87 76.19 564.36 136.02 530.1"/><polygon class="cls-3" points="76.36 603.92 76.19 564.36 237.54 657.87 237.54 697.34 76.36 603.92"/><polygon class="cls-3" points="297.6 623.08 297.6 662.9 237.45 697.45 237.54 657.58 297.6 623.08"/><polygon class="cls-3" points="76.41 564.74 238.31 657.62 178.48 692.51 16.58 599 76.41 564.74"/><polygon class="cls-3" points="16.75 638.56 16.58 599 177.93 692.51 177.93 731.98 16.75 638.56"/><polygon class="cls-3" points="237.99 657.71 237.99 697.53 177.84 732.09 177.93 692.22 237.99 657.71"/><polygon class="cls-2" points="237.86 698.79 341.37 637.45 588.66 312.85 664.06 270.04 664.06 174.83 570.13 227.86 319.57 562.65 237.86 609.34 237.86 698.79"/><polygon class="cls-1" points="664.06 270.04 661.5 451.51 341.37 637.45 588.66 312.85 664.06 270.04"/><path class="cls-4" d="M1362.24,513l-5.31,3.1a20.26,20.26,0,0,0-3.36-9.11l4.51-8.73c.6-1.14.6-2.4,0-2.8l-4.28-2.94c-.59-.41-1.55.19-2.14,1.33l-4.51,8.69a13.38,13.38,0,0,0-7.07.35l.23-7.06c0-1.11-.62-1.62-1.45-1.14l-6.11,3.53a3.79,3.79,0,0,0-1.59,2.89l-.24,7a48,48,0,0,0-8,8.71l-4.33-3.87c-.55-.48-1.52,0-2.16,1.16l-4.74,8.21c-.65,1.13-.74,2.45-.19,2.94l4.46,4a61.62,61.62,0,0,0-4,13.06l-6,3.47a4,4,0,0,0-1.63,3l-.35,8.36c0,1.15.61,1.68,1.47,1.17l5.91-3.47a21.71,21.71,0,0,0,2.91,9l-5.15,9.89c-.62,1.19-.64,2.5,0,2.92l4.37,3.06c.6.43,1.59-.21,2.21-1.4l4.86-9.41a13.09,13.09,0,0,0,8.17-.28l-.28,8c0,1.16.63,1.69,1.49,1.18l6.24-3.71a4,4,0,0,0,1.61-3l.26-8a49.14,49.14,0,0,0,7.83-8.82l4.18,3.73c.55.5,1.52,0,2.16-1.18l4.67-8.36c.64-1.14.71-2.47.15-3l-4.3-3.83a60.24,60.24,0,0,0,3.8-13.26l5.28-3.1a3.84,3.84,0,0,0,1.57-2.93l.21-8.18C1363.73,513.05,1363.07,512.54,1362.24,513Zm-37.56,28.18c.26-7.18,4.8-15.51,10.14-18.62s9.45.15,9.23,7.28-4.74,15.53-10.1,18.68S1324.42,548.42,1324.68,541.21Z" transform="translate(-741.62 -140.36)"/><path class="cls-4" d="M1270.22,604.4l-5.31,3.1a20.14,20.14,0,0,0-3.36-9.1l4.52-8.74c.59-1.14.59-2.39,0-2.79l-4.29-3c-.58-.4-1.54.2-2.13,1.33l-4.52,8.69a13.3,13.3,0,0,0-7.07.36l.23-7.07c0-1.11-.61-1.62-1.45-1.13l-6.1,3.52a3.78,3.78,0,0,0-1.59,2.9l-.25,7a47.57,47.57,0,0,0-8,8.71l-4.34-3.86c-.54-.49-1.51,0-2.16,1.15l-4.73,8.22c-.65,1.13-.74,2.44-.19,2.93l4.45,4a61.53,61.53,0,0,0-4,13.05l-5.94,3.47a4,4,0,0,0-1.64,3l-.34,8.36c0,1.16.61,1.68,1.47,1.18l5.91-3.47a21.81,21.81,0,0,0,2.9,9l-5.14,9.89c-.62,1.2-.64,2.51,0,2.93l4.36,3.06c.6.42,1.59-.21,2.21-1.41l4.87-9.4a13.24,13.24,0,0,0,8.17-.28l-.28,8c0,1.16.62,1.69,1.48,1.18l6.24-3.71a4,4,0,0,0,1.62-3l.26-8a49.18,49.18,0,0,0,7.83-8.82l4.17,3.74c.56.49,1.53,0,2.17-1.19l4.66-8.35c.64-1.14.71-2.47.16-3l-4.3-3.83a61.44,61.44,0,0,0,3.8-13.27l5.27-3.09a3.84,3.84,0,0,0,1.57-2.93l.21-8.18C1271.71,604.43,1271.06,603.91,1270.22,604.4Zm-37.56,28.19c.26-7.18,4.81-15.51,10.14-18.62s9.46.14,9.24,7.27-4.74,15.53-10.11,18.69S1232.4,639.79,1232.66,632.59Z" transform="translate(-741.62 -140.36)"/><path class="cls-4" d="M1176.29,700.76l-2.27,1.33a8.69,8.69,0,0,0-1.44-3.9l1.94-3.74c.25-.49.25-1,0-1.2l-1.84-1.26c-.25-.17-.66.08-.91.57l-1.94,3.72a5.73,5.73,0,0,0-3,.15l.1-3c0-.48-.27-.7-.63-.49l-2.61,1.51a1.61,1.61,0,0,0-.68,1.24l-.11,3a20.78,20.78,0,0,0-3.41,3.72l-1.85-1.65c-.24-.21-.65,0-.93.5l-2,3.51c-.28.49-.31,1-.08,1.26l1.91,1.71a26.4,26.4,0,0,0-1.69,5.59l-2.55,1.49a1.7,1.7,0,0,0-.7,1.27l-.15,3.58c0,.5.27.72.63.5l2.54-1.48a9.2,9.2,0,0,0,1.24,3.85l-2.2,4.24c-.27.51-.28,1.07,0,1.25l1.87,1.31c.25.18.68-.09.94-.6l2.09-4a5.64,5.64,0,0,0,3.5-.12l-.12,3.42c0,.5.27.72.63.5l2.68-1.58a1.75,1.75,0,0,0,.69-1.3l.11-3.43a20.93,20.93,0,0,0,3.35-3.78l1.79,1.6c.24.21.65,0,.93-.51l2-3.57c.27-.49.3-1.06.06-1.27l-1.84-1.64a26.4,26.4,0,0,0,1.63-5.69l2.26-1.32a1.62,1.62,0,0,0,.67-1.26l.09-3.5C1176.93,700.77,1176.65,700.55,1176.29,700.76Zm-16.08,12.07c.11-3.07,2-6.64,4.34-8s4,.06,4,3.11-2,6.65-4.32,8S1160.1,715.92,1160.21,712.83Z" transform="translate(-741.62 -140.36)"/><path class="cls-4" d="M1380.13,455.39l-2.27,1.33a8.69,8.69,0,0,0-1.44-3.9l1.93-3.74c.26-.49.26-1,0-1.2l-1.83-1.26c-.25-.17-.66.08-.91.57l-1.94,3.72a5.77,5.77,0,0,0-3,.15l.1-3c0-.48-.26-.7-.62-.49l-2.61,1.51a1.65,1.65,0,0,0-.69,1.24l-.1,3a20.44,20.44,0,0,0-3.41,3.72l-1.86-1.65c-.23-.21-.65,0-.92.5l-2,3.51c-.28.49-.32,1.05-.08,1.26l1.91,1.71a26.44,26.44,0,0,0-1.7,5.59l-2.54,1.49a1.67,1.67,0,0,0-.7,1.27l-.15,3.58c0,.5.26.72.63.5l2.53-1.48a9.35,9.35,0,0,0,1.25,3.85l-2.21,4.24c-.26.51-.27,1.07,0,1.25l1.87,1.31c.26.18.68-.09,1-.6l2.08-4a5.64,5.64,0,0,0,3.5-.12l-.12,3.42c0,.5.27.72.64.5l2.67-1.58a1.69,1.69,0,0,0,.69-1.3l.11-3.43a21,21,0,0,0,3.36-3.78l1.79,1.6c.23.21.65,0,.92-.51l2-3.57c.28-.49.31-1.06.07-1.27l-1.84-1.64a25.82,25.82,0,0,0,1.62-5.69l2.26-1.32a1.66,1.66,0,0,0,.68-1.26l.09-3.5C1380.77,455.4,1380.49,455.18,1380.13,455.39ZM1364,467.46c.11-3.07,2.06-6.64,4.35-8s4,.06,3.95,3.11-2,6.65-4.33,8S1363.93,470.55,1364,467.46Z" transform="translate(-741.62 -140.36)"/><path class="cls-4" d="M1309.6,579.91l-3,2.22a12.07,12.07,0,0,0-1.74-5.42l2.58-5.65c.34-.74.36-1.5,0-1.71l-2.32-1.47c-.31-.2-.84.23-1.18,1l-2.54,5.56a6.61,6.61,0,0,0-3.76.67l.23-4.23c0-.67-.3-.92-.74-.58l-3.22,2.5a2.77,2.77,0,0,0-.86,1.81l-.24,4.17a32.54,32.54,0,0,0-4.19,5.57l-2.09-2.06c-.26-.26-.74.09-1.08.78l-2.48,5c-.34.69-.41,1.46-.16,1.72L1285,592a44.51,44.51,0,0,0-2.21,7.86l-3,2.19a2.78,2.78,0,0,0-.85,1.79l-.35,5c0,.68.25,1,.68.68l3-2.15a14.41,14.41,0,0,0,1.25,5.39l-2.76,6c-.33.72-.37,1.52-.08,1.78l2.1,1.9c.29.26.8-.12,1.13-.85l2.65-5.78a5.71,5.71,0,0,0,4.2-.18l-.29,5c0,.73.3,1.06.76.75l3.36-2.31a2.71,2.71,0,0,0,.91-1.9l.27-5.06a31.92,31.92,0,0,0,4.36-5.65l2.24,2.3c.3.31.85,0,1.22-.78l2.72-5.43c.37-.74.43-1.59.12-1.89l-2.35-2.31a44.77,44.77,0,0,0,2.27-8.48l3-2.18a2.79,2.79,0,0,0,.92-1.92l.2-5.15C1310.44,579.83,1310.07,579.55,1309.6,579.91Zm-23.69,21.2c.44-7,4.43-15.38,9-18.82s8.17-.67,7.83,6.49-4.53,16-9.27,19.38S1285.45,608.24,1285.91,601.11Z" transform="translate(-741.62 -140.36)"/><path class="cls-4" d="M1206.72,657.86l-3,2.23a12,12,0,0,0-1.74-5.42l2.59-5.65c.34-.74.35-1.51,0-1.71l-2.32-1.47c-.31-.21-.84.23-1.17,1l-2.55,5.56a6.49,6.49,0,0,0-3.75.66l.22-4.23c0-.66-.3-.92-.74-.57l-3.21,2.5a2.78,2.78,0,0,0-.87,1.81l-.24,4.16a33.35,33.35,0,0,0-4.19,5.57l-2.08-2c-.26-.26-.75.09-1.09.78l-2.48,5c-.34.69-.41,1.46-.15,1.73l2.1,2.17a45.88,45.88,0,0,0-2.21,7.86l-3,2.2a2.7,2.7,0,0,0-.86,1.79l-.35,5c0,.69.26,1,.68.68l3-2.15a14.66,14.66,0,0,0,1.25,5.4l-2.75,6c-.34.72-.37,1.52-.09,1.78l2.1,1.9c.29.26.8-.12,1.13-.85l2.65-5.78a5.69,5.69,0,0,0,4.21-.19l-.29,5c0,.72.29,1.06.75.75l3.36-2.31a2.75,2.75,0,0,0,.92-1.91l.26-5.06a31.59,31.59,0,0,0,4.37-5.65l2.24,2.31c.3.31.84,0,1.22-.79l2.71-5.42c.38-.75.43-1.59.12-1.89l-2.35-2.32a44.37,44.37,0,0,0,2.27-8.48l3-2.18a2.73,2.73,0,0,0,.92-1.92l.2-5.15C1207.56,657.79,1207.2,657.51,1206.72,657.86ZM1183,679.07c.45-7,4.43-15.38,9-18.82s8.17-.67,7.84,6.49-4.53,16-9.27,19.38S1182.57,686.19,1183,679.07Z" transform="translate(-741.62 -140.36)"/><path class="cls-2" d="M1329.4,583.79l-1.22.72a2.55,2.55,0,0,0-.86-1.42l1-1.64c.13-.21.12-.42,0-.47l-1-.35c-.14,0-.36.09-.49.3l-1,1.63a4.56,4.56,0,0,0-1.69.32v-1.21c0-.19-.15-.25-.35-.14l-1.44.82a.72.72,0,0,0-.36.55l0,1.21a12,12,0,0,0-1.89,1.81l-1.08-.51c-.14-.06-.37.07-.52.29l-1.14,1.62c-.15.22-.17.46,0,.52l1.12.53a10.11,10.11,0,0,0-.93,2.47l-1.47.87a.88.88,0,0,0-.4.61l-.06,1.52c0,.21.16.28.37.15l1.47-.88a2.8,2.8,0,0,0,.77,1.5l-1.25,2c-.16.24-.16.48,0,.53l1.11.37c.15.05.4-.11.55-.36l1.18-1.93a4.65,4.65,0,0,0,2-.4l0,1.45c0,.21.16.28.37.15l1.52-1a.8.8,0,0,0,.38-.61v-1.44a13.32,13.32,0,0,0,1.85-1.9l1,.49c.14.06.37-.07.51-.3l1.06-1.65c.14-.23.15-.46,0-.53l-1.06-.49a9.9,9.9,0,0,0,.81-2.45l1.22-.73a.73.73,0,0,0,.34-.56v-1.4C1329.75,583.74,1329.6,583.68,1329.4,583.79ZM1319.07,591a8.15,8.15,0,0,1,3.89-6c2-1.19,3.67-.53,3.68,1.47s-1.67,4.72-3.77,6S1319,593.14,1319.07,591Z" transform="translate(-741.62 -140.36)"/><path class="cls-2" d="M1218.86,679.64l-1.23.72a2.56,2.56,0,0,0-.86-1.43l1-1.63c.13-.22.12-.43,0-.47l-1-.35c-.14-.05-.36.09-.49.3l-1,1.63a4.52,4.52,0,0,0-1.68.32v-1.21c0-.19-.16-.25-.35-.14l-1.44.82a.73.73,0,0,0-.37.55l0,1.21a12.39,12.39,0,0,0-1.89,1.81l-1.07-.51c-.14-.06-.37.07-.53.29l-1.13,1.62c-.16.22-.17.46,0,.52l1.12.53a10.07,10.07,0,0,0-.92,2.47l-1.48.87a.88.88,0,0,0-.4.6l-.06,1.53c0,.21.16.28.38.15l1.47-.88a2.73,2.73,0,0,0,.77,1.5l-1.26,2c-.15.25-.15.49,0,.54l1.12.37c.15.05.4-.11.55-.36l1.17-1.93a4.71,4.71,0,0,0,2-.41l0,1.46c0,.21.17.28.38.15l1.52-.95a.84.84,0,0,0,.37-.61l0-1.45a12.2,12.2,0,0,0,1.84-1.89l1,.49c.13.06.36-.07.51-.3l1.05-1.66c.15-.22.15-.46,0-.52l-1.06-.5a9.28,9.28,0,0,0,.8-2.44l1.22-.73a.74.74,0,0,0,.35-.56l0-1.4C1219.21,679.59,1219.05,679.52,1218.86,679.64Zm-10.33,7.22a8.17,8.17,0,0,1,3.88-6c2-1.19,3.68-.54,3.68,1.46s-1.67,4.73-3.77,6S1208.47,689,1208.53,686.86Z" transform="translate(-741.62 -140.36)"/><path class="cls-2" d="M1354.32,477.08l-1.22.72a2.55,2.55,0,0,0-.86-1.42l1-1.64c.13-.21.12-.42,0-.47l-1-.35c-.14,0-.36.09-.49.3l-1,1.63a4.48,4.48,0,0,0-1.68.32V475c0-.19-.16-.25-.36-.14l-1.44.82a.72.72,0,0,0-.36.55l0,1.21a12,12,0,0,0-1.89,1.81l-1.08-.51c-.14-.06-.37.07-.52.29l-1.14,1.62c-.15.22-.17.46,0,.52l1.12.53a10.11,10.11,0,0,0-.93,2.47l-1.47.87a.88.88,0,0,0-.4.61l-.06,1.52c0,.21.16.28.37.15l1.48-.88a2.72,2.72,0,0,0,.76,1.5l-1.25,2c-.16.24-.16.48,0,.53l1.11.37c.15.05.4-.11.55-.36l1.18-1.93a4.65,4.65,0,0,0,2-.4l0,1.45c0,.21.16.28.37.15l1.52-.95a.8.8,0,0,0,.38-.61v-1.45a12.74,12.74,0,0,0,1.85-1.89l1,.49c.14.06.37-.07.52-.3l1-1.66c.14-.22.15-.45,0-.52l-1.06-.49a9.51,9.51,0,0,0,.81-2.45l1.22-.73a.77.77,0,0,0,.35-.56l0-1.4C1354.67,477,1354.52,477,1354.32,477.08ZM1344,484.3a8.11,8.11,0,0,1,3.88-6c2-1.19,3.68-.54,3.68,1.47s-1.67,4.72-3.77,6S1343.94,486.43,1344,484.3Z" transform="translate(-741.62 -140.36)"/><path class="cls-1" d="M1405.68,410.39s104.37-130,1.28-134.82l-117.58,65.81L1046.57,667.26l-55,33.23c-167.41,116.3-10.86,138.66-10.86,138.66v-14.7C856.15,800.81,999.92,712,999.92,712l53-32.59,245.37-325.24,108.38-59.56s68.29-22.28-1,93.43Z" transform="translate(-741.62 -140.36)"/><path class="cls-5" d="M884.84,613a4.26,4.26,0,0,1-.21,1.63,2.15,2.15,0,0,1-2.77,1.08,38.91,38.91,0,0,0,.36,9.71.45.45,0,0,1,0,.28c-.06.15-.25.18-.41.19a22.82,22.82,0,0,1-5.09.07,7.9,7.9,0,0,1-4.58-2.05,2.59,2.59,0,0,1-.89-2.12,3.48,3.48,0,0,1,.29-.82,22,22,0,0,0,2-7.39,5.81,5.81,0,0,0,0-1.25c-.18-1.18-1.41-2-1.41-3.26a2.3,2.3,0,0,1,.62-1.4,3,3,0,0,1,2.42-.34c.48.28.87.43.24,1.49a8.62,8.62,0,0,1,1.59-4.23c.38-.44.57-1,1-1.4a2.18,2.18,0,0,1,2-.64,28.37,28.37,0,0,1,3.4,1.06c1.35.35,1.45.41,1.46,1.82C884.82,608,884.83,610.48,884.84,613Z" transform="translate(-741.62 -140.36)"/><path class="cls-5" d="M936,627.76a1.76,1.76,0,0,1,.88,0,.63.63,0,0,1,.47.66.88.88,0,0,1-.29.45,6,6,0,0,1,2.69-.9.32.32,0,0,1,.17,0,.26.26,0,0,1,.1.13,5.74,5.74,0,0,1,.51,2A3,3,0,0,1,940,632a4.67,4.67,0,0,1-.82.78c-.32.26-.65.51-1,.76a5.55,5.55,0,0,1-.87.59,6,6,0,0,1-.83.33l-2.36.82a8.18,8.18,0,0,1-3.43.65.51.51,0,0,1-.21-.06.5.5,0,0,1-.16-.22,25.44,25.44,0,0,1-1-2.55c-.16-.47-.1-.58.19-1s.44-.58.68-.86a11.33,11.33,0,0,1,3.52-2.66A12.28,12.28,0,0,1,936,627.76Z" transform="translate(-741.62 -140.36)"/><path class="cls-6" d="M873.79,611.65a1,1,0,0,0-.1-.46c-.14-.23-.44-.32-.66-.48a1.33,1.33,0,0,1-.31-1.6A2.57,2.57,0,0,1,874,608a2.26,2.26,0,0,1,1.24-.25,1.06,1.06,0,0,1,.92.77c-.1-1.6.93-3,1.91-4.29a3.5,3.5,0,0,1,1.07-1,2.71,2.71,0,0,1,2.32.11c.74.32,1.41.78,2.17,1a7.06,7.06,0,0,0,2.1.29c1.11,0,2.21,0,3.31-.1-2.45-2.26-3.43-5.75-5.76-8.13a2.65,2.65,0,0,0-.88-.65,2.29,2.29,0,0,0-1-.14c-2,0-3.78.88-5.63,1.47-2.16.68-4.52,1.06-6.2,2.57a5.81,5.81,0,0,0-1.72,5.57c.45,1.86,1.78,3.35,2.68,5a24.59,24.59,0,0,0,1.2,2.27c.28.43,1.48,1.61,2.11,1.36S873.83,612.16,873.79,611.65Z" transform="translate(-741.62 -140.36)"/><path class="cls-5" d="M839.27,677.54a6.17,6.17,0,0,0-.51,1.44,5.69,5.69,0,0,0,.44,3.32,1.64,1.64,0,0,0,.32.54,1.16,1.16,0,0,0,1.29.13,3,3,0,0,0,1-.92,15.07,15.07,0,0,0,1.14-1.72l-.31,1.12a.42.42,0,0,0,0,.38.3.3,0,0,0,.19.12c.65.19,1.29-.35,1.67-.91a7.59,7.59,0,0,0,.57-6.94.67.67,0,0,0-.16-.27c-.23-.22-.68-.27-1-.4a2.33,2.33,0,0,0-.79-.35c-.58,0-1.15.67-1.52,1A12.24,12.24,0,0,0,839.27,677.54Z" transform="translate(-741.62 -140.36)"/><path class="cls-6" d="M857.39,677.36s-.88,24.23-8.7,32.91c-7.61,8.45-12.17,47.35-12.17,47.35s3.91,2.6,5.22,2.6c0,0,22.58-38.22,23.45-43,0,0,.87,32.15,7.39,48.65,0,0,6.08,1.74,6.51-1.3,0,0,6.95-76.45,6.52-80.36C885.61,684.21,858.24,682.47,857.39,677.36Z" transform="translate(-741.62 -140.36)"/><path class="cls-7" d="M871.54,621l10.68,4.73,2.62,3.92s20.31,9,21.18,8.55c0,0,22.16-5.65,23-5.65a5.15,5.15,0,0,1,1.74,3.48s-20.41,10.42-21.72,10c0,0-15.73.71-19.38-1.17l-1-1s-.44,36.06-3,41.27c0,0-22.59.43-28.67-7.39,0,0,3.47-21.28,2.17-23,0,0-7.38,3.91-12.59,19.12,0,0-1.31,1.3-3.48-.87,0,0,3.48-23.89,10.42-26.5,0,0,9.56-12.16,9.56-13C863,633.39,866.16,621.15,871.54,621Z" transform="translate(-741.62 -140.36)"/><path class="cls-7" d="M878.44,766.44c.55,1.29,1.21,2.69,2.48,3.29a6.72,6.72,0,0,0,1.46.4c1.53.29,3,.64,4.53,1,.67.18,1.43.47,1.62,1.13.1.36,0,.78.23,1.08l-15,.2a.89.89,0,0,1-.58-.12.92.92,0,0,1-.26-.74c0-1.11-.08-2.22-.1-3.33,0-.57-.3-2,.22-2.44C873.15,766.82,878.62,766.86,878.44,766.44Z" transform="translate(-741.62 -140.36)"/><path class="cls-7" d="M838.35,760.22a6,6,0,0,0,3.51,1.5c-.05,1.26-.07,2.53-.07,3.79a9.59,9.59,0,0,0,.16,2.07,5,5,0,0,0,2.17,3.09,6.26,6.26,0,0,1,1.31.91,1.13,1.13,0,0,1,.14,1.45,1.5,1.5,0,0,1-1.1.36,22.23,22.23,0,0,1-3.16-.07,5.56,5.56,0,0,1-2-.46,2.22,2.22,0,0,1-1.25-1.51c-.1-.51,0-1,0-1.55a3.07,3.07,0,0,0-1.13-1.92c-.56-.52-1.2-.93-1.75-1.46a4.71,4.71,0,0,1-1.11-5.1,5.37,5.37,0,0,1,1.88-2.26C836.73,758.64,837.77,759.8,838.35,760.22Z" transform="translate(-741.62 -140.36)"/><path class="cls-4" d="M958.86,579.56l-5.35-3.07v-2.81l13.08,7.5V584l-5.42-3.12v22.88l-2.31-1.36Z" transform="translate(-741.62 -140.36)"/><path class="cls-4" d="M968.57,582.66a21.45,21.45,0,0,1,4.43,2,12.54,12.54,0,0,1,5.2,5.1,12.36,12.36,0,0,1,1.42,5.75c0,3.43-1.5,4.83-3.4,4.65v.12c1.39,1.5,2.22,3.83,2.65,6.77a78.67,78.67,0,0,0,1.39,7.94l-2.41-1.41a64.94,64.94,0,0,1-1.2-6.9c-.53-3.89-1.49-5.79-3.59-7.13l-2.18-1.27v11.2l-2.31-1.36Zm2.31,13.09,2.36,1.37c2.48,1.44,4,.39,4-2.57a8.07,8.07,0,0,0-4.13-7.22,8.36,8.36,0,0,0-2.28-1Z" transform="translate(-741.62 -140.36)"/><path class="cls-4" d="M986,610.17l-1.89,7.08-2.41-1.42,6.16-22.46L990.7,595l6.25,29.8-2.53-1.49-2-9.38Zm6,.85-1.79-8.56c-.41-1.94-.68-3.65-.95-5.31l-.05,0c-.27,1.39-.57,2.81-.92,4.19l-1.78,6.51Z" transform="translate(-741.62 -140.36)"/><path class="cls-4" d="M1002,601.51V627.8l-2.38-1.4V600.15Z" transform="translate(-741.62 -140.36)"/><path class="cls-4" d="M1006.23,630.26V603.91l2.62,1.51,6,16.83c1.4,3.91,2.48,7.34,3.38,10.57h0c-.22-3.67-.28-6.93-.28-11.06v-11.1l2.3,1.32v26.55l-2.46-1.45-6-16.91c-1.3-3.7-2.55-7.43-3.49-10.83h-.08c.14,3.4.19,6.61.19,11v11.27Z" transform="translate(-741.62 -140.36)"/><path class="cls-4" d="M1027,615.83v26.65l-2.45-1.44V614.43Z" transform="translate(-741.62 -140.36)"/><path class="cls-4" d="M1031.3,645V618.3l2.7,1.54,6.16,17.11c1.43,4,2.54,7.46,3.46,10.75h.06c-.23-3.72-.29-7-.29-11.21V625.23l2.36,1.35V653.5l-2.53-1.49-6.12-17.19c-1.34-3.76-2.62-7.56-3.58-11h-.09c.14,3.46.2,6.7.2,11.15v11.42Z" transform="translate(-741.62 -140.36)"/><path class="cls-4" d="M1065.09,663.66a14.81,14.81,0,0,1-6.07-2.08,18.89,18.89,0,0,1-7.32-7.87,25.9,25.9,0,0,1-2.72-11.63c0-8,4-11.62,10.6-7.85a18.63,18.63,0,0,1,4.92,4.08l-.62,2.5a15.72,15.72,0,0,0-4.36-3.67c-4.78-2.75-7.88-.45-7.88,6.32s3,12.65,7.56,15.33a6.88,6.88,0,0,0,3.39,1.27V652l-4-2.33v-2.82l6.5,3.77Z" transform="translate(-741.62 -140.36)"/><path class="cls-5" d="M1241.78,152.58c1.48,1.49,2,3,4,4.07.81.44,1.63,1.24,2.43.78a4.92,4.92,0,0,0,1-1,1.12,1.12,0,0,1,1.23-.42c.57.28.7,1.3,1.33,1.23l2.67-3.55-1.76-2a2.37,2.37,0,0,1-.41-.57,2.55,2.55,0,0,1-.18-.87,13.93,13.93,0,0,0-2.45-6.57,4.82,4.82,0,0,0-1.33-1.37,3.86,3.86,0,0,0-3.4-.13,10.68,10.68,0,0,0-2.91,2c-1,.88-3,2.51-2.26,4.07C1240.29,149.59,1240.67,151.48,1241.78,152.58Z" transform="translate(-741.62 -140.36)"/><path class="cls-8" d="M1213.36,202.86c-.33.65.4,1.4.28,2.13a1.62,1.62,0,0,1-.46.8,6.61,6.61,0,0,1-2.84,1.83,1,1,0,0,0-.38.19.78.78,0,0,0-.12.73,3.63,3.63,0,0,0,3,3,6.09,6.09,0,0,0,3-.74l1.7-.74c.5-.22,1-.44,1.49-.7a6.15,6.15,0,0,0,2.43-2.09,3.21,3.21,0,0,0,.24-3.1,2.83,2.83,0,0,0-3.45-1.38C1217.84,202.88,1213.22,203.13,1213.36,202.86Z" transform="translate(-741.62 -140.36)"/><path class="cls-9" d="M1302.48,190.51a3.15,3.15,0,0,0-.18,1.54,1.91,1.91,0,0,0,.85,1,3.93,3.93,0,0,0,3.72.38,3.43,3.43,0,0,0,2-3.08,5.18,5.18,0,0,0-1.2-2.91,14.46,14.46,0,0,0-2-2.16,13.71,13.71,0,0,1-2,1.05c-.3.12-1.6.37-1.69.67s.54.91.59,1.21A5.62,5.62,0,0,1,1302.48,190.51Z" transform="translate(-741.62 -140.36)"/><path class="cls-6" d="M1240.62,144.41a15.29,15.29,0,0,1,3.22-2.11,4.72,4.72,0,0,1,2.22-.62,5.28,5.28,0,0,1,2.66,1,13,13,0,0,1,3,5,8.85,8.85,0,0,1,.49,2c0,.36-.66.37-1,.5a1.34,1.34,0,0,1-.49,0h-1c-.17,0-.34-.5-.46-.61a.71.71,0,0,1-.19-.35,1.84,1.84,0,0,0-.77-1.05,2,2,0,0,0-1.36-.11,1.18,1.18,0,0,0-.47.18.44.44,0,0,0-.18.43c.06.23.35.35.4.58l-3.47.11a9.31,9.31,0,0,1-2.74-.18c-.8-.21-2.28-.9-1.87-1.89A7.63,7.63,0,0,1,1240.62,144.41Z" transform="translate(-741.62 -140.36)"/><path class="cls-6" d="M1269.53,202.15s28.26-8.42,28.75-10.9c0,0,3,51.55,2,54.52,0,0,11.4,22.8,19.33,26.77,0,0-5.46,5.45-6.94,5.94,0,0-21.32-19.33-23.3-28.25l-3.47-28.75-3-7.93-1.49.5L1269,241.81s-1,31.72,3,39.65c0,0-5,4-8.92,3,0,0-6.94-36.68-5-40.15,0,0,6.94-37.17,9.42-38.16Z" transform="translate(-741.62 -140.36)"/><path class="cls-6" d="M1314.81,280.16a2.63,2.63,0,0,1,1.75,2.53,4.39,4.39,0,0,1-.49,1.69c-1.19,2.53-3.08,5.05-2.59,7.79a2,2,0,0,0,2,.53,5.83,5.83,0,0,0,1.89-1,41,41,0,0,0,5.42-4.1,13.67,13.67,0,0,0,3.74-5.61,3.33,3.33,0,0,0,.18-1,3.11,3.11,0,0,0-.79-1.69c-1-1.33-3.51-4.34-5.48-3.59-1,.38-1.65,1.65-2.41,2.34A12,12,0,0,1,1314.81,280.16Z" transform="translate(-741.62 -140.36)"/><path class="cls-6" d="M1267.24,287.89a12.9,12.9,0,0,0,3-1.78,37,37,0,0,1,2.21,6.9,1.48,1.48,0,0,1,0,.86,1.33,1.33,0,0,1-.49.51c-2,1.37-4.55,1.47-7,1.52l-8.83.19c-.39,0-.86,0-1-.38-.25-.53.46-1,1-1.16a15.25,15.25,0,0,0,4.94-2.77,8,8,0,0,0,1.54-1.65c.32-.49.47-1.38.92-1.75C1264.41,287.7,1266.19,288.27,1267.24,287.89Z" transform="translate(-741.62 -140.36)"/><path class="cls-10" d="M1249.21,161l4-2c1-.5,2.48-5.45,2.48-5.45a24.85,24.85,0,0,1,10.4-.5c5.46,1,26.27,7.93,28.75,11.4s12.39,20.82,12.39,20.82-3,2.48-5.94,2.48l-12.39-16.86-10.41-4.46s5.45,8.43,9.17,11.65c4,3.48,11.64,12.15,11.64,12.15s-1.48,5.94-13.87,5.94l-7.69,3.06-10.41,5.62s-5.2-10.16-7.93-16.85c0,0-2.72-9.17-8.18-7.69,0,0-8.42,8.92-9.91,16.36,0,0-16.36,8.92-18.34,9.42,0,0-4.46-4-3.78-3.82l19.33-13.88,5.76-18Z" transform="translate(-741.62 -140.36)"/><path class="cls-7" d="M1249,160.76s-9.91,15.37-10.9,26.77c0,0-14.38,13.38-19.83,13.88,0,0,2.48,5,5,5,0,0,14.87-5.94,18.83-10.4,0,0,7.44-16.86,10.41-15.37,0,0,10.16,15.12,14.87,24.29,0,0,7.93,3.47,10.91-3.47l-17.35-25.28Z" transform="translate(-741.62 -140.36)"/><path class="cls-7" d="M1285.15,196.45s-2-8.26-6.94-9.83c0,0-12.89-11.74-14.13-18.55,0,0-9.66-11.27-8.18-14.74,0,0,6.94-6,39.16,10.41l11.9,21.31a6.35,6.35,0,0,1-6,2.48l-14.38-16.85-8.42-4.58,6,8.26,15.29,15.15S1302,196,1285.15,196.45Z" transform="translate(-741.62 -140.36)"/><path class="cls-11" d="M1256.16,158.23a14,14,0,0,0,6-1.7c2.87-1.87,4.24-5.74,7.45-6.94a10.65,10.65,0,0,1,3.42-.49l8.53-.29a13.25,13.25,0,0,0,4-.53c2.77-.94,4.63-3.54,7.18-5,.79-.46,1.65-.8,2.47-1.21a17.12,17.12,0,0,0,2.73-1.71,2.7,2.7,0,0,1-.68,4.07c-3.9,3.39-8.11,6.91-13.23,7.64a26.1,26.1,0,0,1-4.15.16l-7.17-.08a5.55,5.55,0,0,0-2.66.41,6.76,6.76,0,0,0-2,2.23,14.27,14.27,0,0,1-7.34,5.22,13.16,13.16,0,0,1-4.45.57c-.93-.05-4-.26-4.42-1.26C1251.19,157.9,1255.45,158.32,1256.16,158.23Z" transform="translate(-741.62 -140.36)"/><path class="cls-4" d="M1215.07,288.17l4.45,2.59-.18,17.72c-.08,7-4.58,6.62-10.52,3.25a32.8,32.8,0,0,1-4.79-3.36l.69-2.42a25.65,25.65,0,0,0,3.76,2.66c4,2.28,6.37,2.24,6.42-2.95Z" transform="translate(-741.62 -140.36)"/><path class="cls-4" d="M1255.26,324.41c-.13,8.89-7.08,9.68-15.55,4.86-8.87-5-15.1-14-15-22,.09-8.38,6.85-9.95,15.83-4.7S1255.36,316.74,1255.26,324.41Zm-25.87-14.48c-.07,5.61,3.78,12.86,10.6,16.74s10.7,1.19,10.77-4.69c.07-5.16-3.29-12.55-10.46-16.73S1229.45,304.16,1229.39,309.93Z" transform="translate(-741.62 -140.36)"/><path class="cls-4" d="M1260.91,315.3a72.29,72.29,0,0,1,7.67,3.94c4.16,2.43,6.82,4.56,8.8,7a9.43,9.43,0,0,1,2.57,6c0,2.45-2.11,3.43-5.49,2.47v.07c3,2.36,6.54,6.4,6.47,10.16a3.24,3.24,0,0,1-2.77,3.54c-2.25.36-5.87-.94-11.12-3.92-2.88-1.64-5.1-3.05-6.49-4Zm4,13,3.79,2.19c4.39,2.53,7,2.2,7-.26,0-3-2.79-5.83-7-8.28a31.5,31.5,0,0,0-3.7-1.93Zm-.19,12.28c.82.58,2,1.3,3.5,2.15,4.3,2.45,8.26,3.45,8.32-.25.05-3.47-3.68-7.07-8.21-9.68l-3.46-2Z" transform="translate(-741.62 -140.36)"/><path class="cls-4" d="M1132.1,349.15l-.16,23.28-2.08-1.21L1130,348Z" transform="translate(-741.62 -140.36)"/><path class="cls-4" d="M1135.57,374.53l.21-23.28,2.31,1.32,5.1,14.86c1.17,3.42,2.08,6.41,2.82,9.22h0c-.15-3.2-.15-6-.1-9.68l.15-9.82,2,1.14-.38,23.29-2.12-1.23-5-14.72c-1.1-3.25-2.17-6.54-3-9.56h-.08c.09,3,.11,5.86.08,9.73l-.11,9.87Z" transform="translate(-741.62 -140.36)"/><path class="cls-4" d="M1154.94,364.8l-5-2.87,0-2.59,12.3,7-.07,2.59-5.08-2.91-.45,20.71-2.14-1.24Z" transform="translate(-741.62 -140.36)"/><path class="cls-4" d="M1172.41,384.83l-6.47-3.72-.23,8.35,7.18,4.16-.07,2.49-9.31-5.39.61-23.3,9.05,5.16-.08,2.56-6.88-3.94-.21,7.42,6.49,3.72Z" transform="translate(-741.62 -140.36)"/><path class="cls-4" d="M1176.36,374.72a21.31,21.31,0,0,1,4.21,1.9,11.43,11.43,0,0,1,4.83,4.73,10.6,10.6,0,0,1,1.16,5.23c-.12,3.09-1.61,4.33-3.41,4.14v.11c1.28,1.37,2,3.47,2.29,6.11a66.68,66.68,0,0,0,1,7.09l-2.24-1.3a53.37,53.37,0,0,1-.91-6.16c-.38-3.49-1.23-5.21-3.19-6.45l-2.05-1.17-.34,10-2.15-1.25Zm1.81,11.94,2.22,1.28c2.32,1.33,3.87.41,4-2.26a7.1,7.1,0,0,0-3.73-6.62,7.94,7.94,0,0,0-2.16-1Z" transform="translate(-741.62 -140.36)"/><path class="cls-4" d="M1188.94,405.45l1-23.32,2.4,1.37,4.94,15c1.13,3.46,2,6.47,2.7,9.31h0c-.06-3.21,0-6.06.2-9.7l.48-9.84,2.09,1.19-1.15,23.34-2.21-1.28-4.85-14.87c-1.07-3.28-2.09-6.61-2.84-9.65h-.07c0,3-.07,5.88-.24,9.76l-.42,9.89Z" transform="translate(-741.62 -140.36)"/><path class="cls-4" d="M1205.33,411.21a12.87,12.87,0,0,0,3.87,3.8c2.26,1.3,3.67.46,3.8-1.88.12-2.17-.73-3.94-3-6.49-2.73-3-4.36-5.93-4.19-9.23.19-3.67,2.56-5.14,5.92-3.22a11.92,11.92,0,0,1,3.78,3.35l-.76,2.13a11.1,11.1,0,0,0-3.23-3c-2.36-1.34-3.36.07-3.44,1.67-.12,2.2.87,3.88,3.18,6.49,2.83,3.2,4.2,5.95,4,9.37s-2.33,5.51-6.36,3.18a13.82,13.82,0,0,1-4.27-4Z" transform="translate(-741.62 -140.36)"/><path class="cls-4" d="M1221.59,400.2l-.6,9.85,8.42,4.83.65-9.85,2.29,1.31-1.57,23.35-2.27-1.31.72-10.87-8.4-4.83-.66,10.87-2.22-1.29,1.39-23.34Z" transform="translate(-741.62 -140.36)"/><path class="cls-4" d="M1238.58,409.89l-1.67,23.35-2.25-1.3,1.64-23.35Z" transform="translate(-741.62 -140.36)"/><path class="cls-4" d="M1242.55,412.45a25.51,25.51,0,0,1,4.43,2.05,11.8,11.8,0,0,1,4.84,4.82,10.69,10.69,0,0,1,1.17,5.82c-.18,2.13-.79,3.52-1.78,4.22-1.34,1-3.37.73-5.6-.55a9.51,9.51,0,0,1-1.81-1.26l-.7,9.28-2.26-1.31ZM1244,425.1a9.68,9.68,0,0,0,1.87,1.32c2.75,1.58,4.57.78,4.83-2.45a7.19,7.19,0,0,0-3.83-7,8.83,8.83,0,0,0-2.18-1Z" transform="translate(-741.62 -140.36)"/><path class="cls-4" d="M1078.62,427.67l.33,13.49c.12,5.07,2.11,8.33,4.72,9.84,2.9,1.68,4.72.54,4.61-4.47L1088,433l2.58,1.48.26,13.31c.14,7-3,8-7.22,5.51-4-2.31-7.06-6.68-7.24-13.69l-.34-13.43Z" transform="translate(-741.62 -140.36)"/><path class="cls-4" d="M1095,437.31a34.89,34.89,0,0,1,4.93,2.37,15.69,15.69,0,0,1,5.63,5.11,11,11,0,0,1,1.81,5.79c0,2.07-.48,3.39-1.47,4-1.34.87-3.54.44-6-1a13.67,13.67,0,0,1-2.06-1.38l.15,9.06-2.55-1.47Zm2.76,12.49a13,13,0,0,0,2.12,1.45c3.09,1.78,5,1.14,4.92-2s-1.93-5.55-4.77-7.18a12.8,12.8,0,0,0-2.42-1.14Z" transform="translate(-741.62 -140.36)"/><path class="cls-4" d="M1110.68,465.07a17.51,17.51,0,0,0,4.63,4.15c2.64,1.52,4.18.83,4.16-1.46,0-2.12-1.1-3.95-3.82-6.7-3.28-3.19-5.33-6.28-5.36-9.51,0-3.57,2.52-4.75,6.44-2.51a16.42,16.42,0,0,1,4.47,3.67l-.7,2a15,15,0,0,0-3.84-3.28c-2.75-1.57-3.78-.29-3.76,1.27,0,2.14,1.26,3.89,4,6.7,3.41,3.45,5.16,6.3,5.18,9.65s-2.25,5.2-7,2.47a19.24,19.24,0,0,1-5.1-4.39Z" transform="translate(-741.62 -140.36)"/><path class="cls-4" d="M1125.59,454.47l2.62,1.49,0,11.07.09.05c.54-.57,1.07-1.08,1.58-1.53l6.21-5.07,3.28,1.88-7.38,5.52,7.94,17.67-3.1-1.79-6.7-15-1.91,1.4,0,8.66-2.6-1.5Z" transform="translate(-741.62 -140.36)"/><path class="cls-4" d="M1144.66,465.35l-.06,22.87L1142,486.7l0-22.87Z" transform="translate(-741.62 -140.36)"/><path class="cls-4" d="M1149.3,468l2.67,1.52-.11,20.43,8.78,5.07,0,2.47-11.42-6.61Z" transform="translate(-741.62 -140.36)"/><path class="cls-4" d="M1163.82,476.28l2.7,1.54-.24,20.46,8.87,5.12,0,2.47-11.53-6.67Z" transform="translate(-741.62 -140.36)"/><path class="cls-4" d="M1015.12,500.75a21.49,21.49,0,0,1,4.18,1.92,12,12,0,0,1,4.77,4.86,13.42,13.42,0,0,1,1.5,6.17c0,2.28-.44,3.81-1.28,4.62-1.14,1.15-3,1-5.11-.24a9.48,9.48,0,0,1-1.74-1.23l.1,9.91-2.14-1.25Zm2.29,13.46a9.19,9.19,0,0,0,1.8,1.3c2.61,1.52,4.19.55,4.18-2.93a8.13,8.13,0,0,0-4-7.27,7.6,7.6,0,0,0-2-.92Z" transform="translate(-741.62 -140.36)"/><path class="cls-4" d="M1028.5,508.5a19.87,19.87,0,0,1,4.24,1.91,11.75,11.75,0,0,1,4.94,4.94,12,12,0,0,1,1.31,5.59c0,3.33-1.46,4.7-3.25,4.55v.11c1.3,1.43,2.07,3.66,2.45,6.47a74.74,74.74,0,0,0,1.25,7.52l-2.25-1.31a60.36,60.36,0,0,1-1.09-6.54c-.48-3.72-1.38-5.54-3.36-6.8l-2-1.2,0,10.72-2.16-1.27Zm2.19,12.79,2.24,1.3c2.34,1.36,3.83.33,3.85-2.55a7.77,7.77,0,0,0-3.9-7,7.51,7.51,0,0,0-2.18-.95Z" transform="translate(-741.62 -140.36)"/><path class="cls-4" d="M1044.87,535l-1.86,6.72-2.25-1.32,6.11-21.62,2.7,1.55,5.37,28.38-2.35-1.38-1.67-8.8Zm5.64.76-1.55-8.19c-.36-1.87-.59-3.52-.82-5.13l-.06,0c-.28,1.36-.58,2.73-.94,4.08l-1.78,6.27Z" transform="translate(-741.62 -140.36)"/><path class="cls-4" d="M1069.08,556.15a8.58,8.58,0,0,1-4.58-1.5c-4.83-2.83-8.35-9.32-8.16-17.44.18-7.87,4-11.12,9.43-8a13.85,13.85,0,0,1,4.14,3.53l-.64,2.36a12.23,12.23,0,0,0-3.5-3.09c-4.1-2.37-6.91-.14-7.08,6.44-.15,6.08,2.17,11.36,6.35,13.81a6.8,6.8,0,0,0,3.66,1.1Z" transform="translate(-741.62 -140.36)"/><path class="cls-4" d="M1076.73,538.81l-5.36-3.1.1-2.79,13.11,7.56-.13,2.78-5.41-3.12-.94,22.11-2.26-1.33Z" transform="translate(-741.62 -140.36)"/><path class="cls-4" d="M1088.86,543l-1.26,24.86-2.25-1.32,1.21-24.87Z" transform="translate(-741.62 -140.36)"/><path class="cls-4" d="M1103.89,576.53a9.14,9.14,0,0,1-4.74-1.57c-5-2.91-8.43-9.43-8-17.52.42-7.83,4.51-11,10.08-7.79a13.84,13.84,0,0,1,4.21,3.59l-.73,2.34a12.3,12.3,0,0,0-3.57-3.14c-4.2-2.43-7.2-.27-7.57,6.3-.34,6,1.93,11.35,6.22,13.86a7.24,7.24,0,0,0,3.79,1.16Z" transform="translate(-741.62 -140.36)"/><path class="cls-4" d="M1116.78,572.91l-7-4.06-.62,8.86,7.73,4.52-.21,2.63-10-5.86,1.69-24.8,9.81,5.66-.21,2.73-7.46-4.3-.55,7.91,7,4.07Z" transform="translate(-741.62 -140.36)"/><path class="cls-4" d="M913.09,671.7l-7.22-4.23v8.94l8,4.72v2.67l-10.4-6.11V652.78l10.08,5.9v2.71l-7.66-4.48v7.9l7.23,4.24Z" transform="translate(-741.62 -140.36)"/><path class="cls-4" d="M917,685.62l.12-24.87,2.64,1.54,5.89,16.14c1.36,3.72,2.42,7,3.28,10H929c-.19-3.44-.22-6.48-.19-10.35l.1-10.45,2.28,1.33-.25,24.84-2.42-1.42-5.81-16c-1.28-3.53-2.51-7.11-3.44-10.37h-.08c.12,3.24.16,6.26.13,10.4L919.23,687Z" transform="translate(-741.62 -140.36)"/><path class="cls-4" d="M935.39,671.78a24.8,24.8,0,0,1,4.66,2.2,13.57,13.57,0,0,1,5.41,5.22,11.4,11.4,0,0,1,1.41,5.61c-.06,3.28-1.65,4.54-3.63,4.27v.11a11.87,11.87,0,0,1,2.67,6.61,67.27,67.27,0,0,0,1.34,7.61l-2.49-1.47a54,54,0,0,1-1.16-6.61c-.51-3.74-1.49-5.61-3.68-7L937.64,687l-.13,10.7-2.4-1.41Zm2.28,12.78,2.47,1.45c2.59,1.51,4.26.59,4.3-2.25a8.08,8.08,0,0,0-4.26-7.19,9.42,9.42,0,0,0-2.4-1.11Z" transform="translate(-741.62 -140.36)"/><path class="cls-4" d="M966.35,701.88c-.2,8.5-4.22,10.68-9,7.87-4.94-2.9-8.32-10-8.19-17.46.12-7.89,3.93-10.9,9-8S966.51,694.51,966.35,701.88Zm-14.6-8.14c-.09,5.28,2,11.27,5.8,13.51s6.1-1.12,6.22-6.73c.11-4.93-1.74-11.25-5.8-13.62S951.85,688.28,951.75,693.74Z" transform="translate(-741.62 -140.36)"/><path class="cls-4" d="M969.8,691.56l2.44,1.43-.54,22.08,8,4.72-.07,2.66-10.45-6.14Z" transform="translate(-741.62 -140.36)"/><path class="cls-4" d="M983.07,699.32l2.45,1.43-.65,22.06,8.06,4.74-.08,2.65L982.37,724Z" transform="translate(-741.62 -140.36)"/></svg>